<?xml version="1.0" encoding="utf-8"?>
<svg xmlns="http://www.w3.org/2000/svg" viewBox="39.5 126.7326 863.0001 325.5347" width="863pt" height="325.535pt" preserveAspectRatio="none"><g transform="matrix(1.3181389570236206, 0, 0, 1.3181389570236206, -165.11646418584627, -67.07932794543615)" id="rheehose_typo"><g transform="matrix(0.1, 0, 0, -0.1, 0, 578.999978)" fill="#000000" stroke="none"><path d="M3284 4294 c-95 -63 -219 -213 -331 -399 -170 -282 -432 -886 -450 -1034 -5 -42 -2 -51 18 -70 28 -27 67 -44 80 -35 5 3 29 47 52 97 24 51 64 124 90 163 45 68 266 319 274 311 2 -3 -8 -30 -22 -62 -80 -182 -84 -296 -12 -373 76 -82 144 -66 272 64 49 50 75 70 75 58 0 -30 48 -101 83 -123 45 -28 106 -36 153 -21 57 19 141 75 201 132 l52 51 7 -37 c8 -47 45 -91 97 -118 100 -50 240 16 371 178 53 64 85 139 67 157 -8 8 -29 -6 -84 -60 -98 -97 -213 -172 -283 -187 -41 -9 -67 14 -58 52 14 57 25 72 66 93 90 45 208 131 257 188 67 77 124 186 116 219 -11 45 -82 91 -141 92 -106 1 -293 -187 -386 -387 -75 -158 -360 -336 -399 -249 -17 36 7 75 56 95 184 74 355 258 355 384 0 33 -6 48 -22 63 -55 48 -141 58 -208 24 -92 -47 -246 -241 -286 -362 -12 -39 -33 -64 -105 -130 -104 -96 -146 -125 -160 -111 -27 27 60 300 150 468 56 106 56 101 7 130 -72 42 -81 38 -217 -92 -68 -65 -149 -144 -180 -176 l-58 -57 43 92 c202 435 384 735 550 906 58 60 60 64 42 78 -31 22 -88 17 -132 -12z m964 -806 c-26 -46 -125 -151 -177 -188 l-34 -24 24 35 c60 84 183 218 202 219 4 0 -3 -19 -15 -42z m-498 -38 c-28 -52 -86 -119 -153 -177 -39 -34 -73 -60 -75 -58 -15 14 129 191 192 237 44 31 54 31 36 -2z"/><path d="M5651 4224 c-35 -29 -114 -151 -177 -271 -39 -76 -171 -368 -187 -413 -3 -10 -39 -24 -103 -39 -55 -13 -107 -28 -116 -33 -10 -5 -18 -6 -18 -3 0 5 147 382 180 463 20 47 13 61 -45 88 -31 13 -59 22 -64 19 -5 -2 -25 -47 -44 -97 -20 -51 -59 -154 -88 -228 -29 -74 -66 -173 -84 -220 l-32 -85 -79 -32 c-43 -17 -86 -34 -96 -36 -10 -3 -23 -17 -29 -31 -11 -23 -9 -29 11 -51 18 -19 34 -25 67 -25 24 0 43 -2 43 -4 0 -3 -11 -36 -25 -75 -33 -90 -65 -216 -65 -253 0 -38 48 -88 84 -88 20 0 27 6 31 28 16 78 54 187 137 393 l31 77 120 41 c66 23 122 39 124 37 2 -2 -10 -39 -28 -82 -136 -341 -186 -563 -144 -644 23 -44 75 -53 75 -12 0 51 124 416 227 667 l49 119 75 18 c79 18 133 23 127 11 -146 -285 -164 -431 -62 -509 25 -19 45 -25 84 -26 44 0 60 6 107 38 54 37 142 140 188 218 65 112 88 279 48 348 -20 36 -92 78 -134 78 -14 0 -34 9 -44 20 -27 30 -55 24 -100 -20 l-42 -41 -96 -5 -97 -5 33 68 c136 279 225 440 278 504 l38 46 -27 26 c-15 14 -44 30 -65 35 -33 9 -41 8 -66 -14z m243 -730 c30 -79 -52 -247 -192 -391 -71 -75 -98 -82 -87 -25 17 97 133 326 200 398 34 36 69 44 79 18z"/><path d="M7272 4220 c-163 -43 -388 -195 -563 -378 -121 -127 -168 -207 -176 -299 -7 -75 8 -126 54 -193 42 -59 75 -86 214 -173 l93 -59 -169 -86 c-170 -87 -321 -184 -350 -225 -47 -67 25 -167 133 -183 104 -16 272 53 385 157 84 76 123 132 140 200 8 28 21 56 31 61 9 5 59 24 111 42 l95 33 0 -24 c0 -83 50 -161 132 -205 49 -27 152 -24 232 6 167 63 361 237 437 392 58 116 20 168 -49 67 -121 -177 -383 -358 -536 -370 -60 -5 -65 -4 -81 20 -14 22 -15 34 -6 83 15 78 31 99 93 119 118 38 201 87 279 165 85 84 119 145 119 211 0 60 -27 101 -86 128 -47 23 -50 23 -101 7 -119 -38 -288 -206 -375 -373 l-39 -76 -92 -32 c-51 -18 -115 -42 -143 -54 l-51 -22 -65 48 c-36 26 -95 70 -132 96 -70 51 -126 129 -126 177 0 60 85 193 194 304 136 139 395 291 531 311 43 7 45 6 45 -16 0 -61 -135 -262 -262 -391 -54 -55 -98 -104 -98 -109 0 -31 133 -21 195 16 109 63 283 334 293 454 8 91 -47 157 -148 180 -60 14 -73 13 -158 -9z m505 -647 c-27 -51 -83 -107 -166 -167 -45 -32 -84 -56 -87 -53 -8 8 144 167 205 215 30 23 56 40 58 38 3 -2 -2 -17 -10 -33z m-913 -628 c-57 -51 -192 -140 -256 -170 -30 -14 -77 -28 -104 -31 l-49 -6 65 43 c52 35 363 198 379 199 2 0 -13 -16 -35 -35z"/><path d="M2343 4134 c-133 -19 -288 -71 -438 -146 -152 -77 -341 -242 -351 -309 -7 -44 8 -83 41 -105 31 -20 55 -6 55 33 0 79 336 291 571 361 19 6 49 15 67 21 l33 10 -35 -47 c-20 -26 -60 -87 -88 -137 -29 -49 -61 -103 -70 -120 -36 -62 -107 -203 -148 -296 -36 -84 -46 -98 -70 -103 -33 -6 -43 -29 -32 -71 7 -23 -5 -67 -55 -215 -74 -215 -123 -396 -123 -451 0 -29 8 -47 31 -74 17 -19 39 -35 49 -35 18 0 40 44 40 82 0 31 163 509 171 501 4 -5 23 -51 42 -103 121 -334 317 -585 548 -702 l84 -43 116 0 c109 0 118 1 157 28 27 18 42 35 42 48 0 17 -4 20 -22 15 -64 -20 -153 -18 -218 4 -164 56 -363 268 -494 529 -45 88 -126 288 -126 310 0 9 22 28 53 45 279 154 509 387 621 626 24 52 30 79 30 136 1 62 -2 75 -27 108 -80 104 -219 135 -454 100z m325 -130 c30 -21 28 -56 -7 -131 -93 -195 -291 -407 -475 -508 -66 -37 -68 -37 -61 -14 12 37 81 185 178 384 92 186 108 234 88 259 -15 18 13 22 159 24 72 2 101 -2 118 -14z"/><path d="M5756 2503 c-1 -1 -74 -3 -161 -4 -494 -6 -1107 -90 -1672 -229 -46 -11 -118 -28 -160 -39 -165 -40 -413 -117 -731 -228 -51 -18 -68 -43 -51 -76 21 -41 62 -77 87 -77 14 0 86 22 161 50 436 159 884 274 1413 364 564 96 1272 144 1723 117 439 -26 625 -64 712 -144 13 -11 26 -17 30 -14 12 13 -15 54 -59 89 -121 97 -390 155 -828 177 -197 11 -459 18 -464 14z"/></g></g></svg>