<?xml version="1.0" encoding="UTF-8"?>
<svg xmlns="http://www.w3.org/2000/svg" xmlns:xlink="http://www.w3.org/1999/xlink" viewBox="0 0 841.89 141.73">
  <defs>
    <style>
      .cls-1 {
        fill: url(#_무제_그라디언트_10);
        opacity: .8;
      }

      .cls-2 {
        clip-path: url(#clippath-4);
      }

      .cls-3 {
        fill: #fff;
      }

      .cls-4 {
        fill: #e4002b;
      }

      .cls-5 {
        fill: none;
      }

      .cls-6 {
        fill: #bb133e;
      }

      .cls-7 {
        clip-path: url(#clippath-1);
      }

      .cls-8 {
        clip-path: url(#clippath-3);
      }

      .cls-9 {
        fill: #002664;
      }

      .cls-10 {
        fill: #012169;
      }

      .cls-11 {
        clip-path: url(#clippath-2);
      }

      .cls-12 {
        clip-path: url(#clippath);
      }
    </style>
    <clipPath id="clippath">
      <rect class="cls-5" x="-929" y="-108.58" width="841.89" height="311.81"/>
    </clipPath>
    <clipPath id="clippath-1">
      <rect class="cls-5" x="306.14" y="-56.69" width="535.75" height="198.43"/>
    </clipPath>
    <clipPath id="clippath-2">
      <rect class="cls-5" width="535.75" height="198.43"/>
    </clipPath>
    <clipPath id="clippath-3">
      <rect class="cls-5" x="-14.58" y="-1.6" width="54.12" height="27.06" transform="translate(-1.82 2.25) rotate(-9.63)"/>
    </clipPath>
    <clipPath id="clippath-4">
      <path class="cls-5" d="M-16.46,3.12l2.26,13.34L39.15,7.41l2.26,13.34L-16.46,3.12ZM36.89-5.93L10.21-1.41l4.52,26.68-26.68,4.52L36.89-5.93Z"/>
    </clipPath>
    <linearGradient id="_무제_그라디언트_10" data-name="무제 그라디언트 10" x1="85.72" y1="89.04" x2="764.67" y2="89.04" gradientUnits="userSpaceOnUse">
      <stop offset=".56" stop-color="#fff"/>
      <stop offset="1" stop-color="#fff" stop-opacity="0"/>
    </linearGradient>
  </defs>
  <rect class="cls-3" width="841.89" height="141.73"/>
  <g id="_레이어_1" data-name="레이어 1">
    <g class="cls-12">
      <g>
        <path class="cls-6" d="M-232.02,149.26L-37.52,52.21,13.06,153.58l-194.5,97.06-50.58-101.37Z"/>
        <g>
          <path d="M-226.18,160.96L-31.68,63.9M-23.9,79.5l-194.5,97.06M-210.62,192.15L-16.12,95.09M-8.34,110.69l-194.5,97.06M-195.05,223.34L-.55,126.28M7.23,141.88l-194.5,97.06"/>
          <path class="cls-3" d="M9.17,145.78l-194.5,97.06-3.89-7.8L5.28,137.98l3.89,7.8ZM1.39,130.18l-194.5,97.06-3.89-7.8L-2.5,122.39l3.89,7.8ZM-6.39,114.59l-194.5,97.06-3.89-7.8L-10.28,106.79l3.89,7.8ZM-14.17,98.99l-194.5,97.06-3.89-7.8L-18.06,91.2l3.89,7.8ZM-21.96,83.4l-194.5,97.06-3.89-7.8L-25.85,75.6l3.89,7.8ZM-29.74,67.8l-194.5,97.06-3.89-7.8L-33.63,60l3.89,7.8Z"/>
        </g>
      </g>
    </g>
    <rect class="cls-10" x="0" width="841.89" height="141.73"/>
    <g class="cls-7">
      <g>
        <path class="cls-6" d="M749.67,107.39l123.77-61.76,32.19,64.51-123.77,61.76-32.19-64.51Z"/>
        <g>
          <path d="M753.39,114.83l123.77-61.76M882.11,62.99l-123.77,61.76M763.29,134.68l123.77-61.76M892.02,82.84l-123.77,61.76M773.2,154.53l123.77-61.76M901.92,102.69l-123.77,61.76"/>
          <path class="cls-3" d="M903.16,105.17l-123.77,61.76-2.48-4.96,123.77-61.76,2.48,4.96ZM898.21,95.25l-123.77,61.76-2.48-4.96,123.77-61.76,2.48,4.96ZM893.26,85.32l-123.77,61.76-2.48-4.96,123.77-61.76,2.48,4.96ZM888.3,75.4l-123.77,61.76-2.48-4.96,123.77-61.76,2.48,4.96ZM883.35,65.47l-123.77,61.76-2.48-4.96,123.77-61.76,2.48,4.96ZM878.4,55.55l-123.77,61.76-2.48-4.96,123.77-61.76,2.48,4.96Z"/>
        </g>
        <path class="cls-9" d="M748.54,107.96l50.65-25.27,17.33,34.74-50.65,25.27-17.33-34.74Z"/>
        <g>
          <g id="d">
            <g id="c">
              <g id="e">
                <g id="b">
                  <g id="a">
                    <path class="cls-3" d="M754.54,106.82l2.97,3-4.19-.68,3.81-1.9-1.98,3.76-.61-4.18Z"/>
                  </g>
                  <g id="a-2" data-name="a">
                    <path class="cls-3" d="M758.01,113.76l2.97,3-4.19-.68,3.81-1.9-1.98,3.76-.61-4.18Z"/>
                  </g>
                  <g id="a-3" data-name="a">
                    <path class="cls-3" d="M761.48,120.71l2.97,3-4.19-.68,3.81-1.9-1.98,3.76-.61-4.18Z"/>
                  </g>
                  <g id="a-4" data-name="a">
                    <path class="cls-3" d="M764.94,127.66l2.97,3-4.19-.68,3.81-1.9-1.98,3.76-.61-4.18Z"/>
                  </g>
                </g>
                <g id="a-5" data-name="a">
                  <path class="cls-3" d="M768.41,134.6l2.97,3-4.19-.68,3.81-1.9-1.98,3.76-.61-4.18Z"/>
                </g>
              </g>
              <g id="b-2" data-name="b">
                <g id="a-6" data-name="a">
                  <path class="cls-3" d="M760.4,108.23l2.97,3-4.19-.68,3.81-1.9-1.98,3.76-.61-4.18Z"/>
                </g>
                <g id="a-7" data-name="a">
                  <path class="cls-3" d="M763.87,115.18l2.97,3-4.19-.68,3.81-1.9-1.98,3.76-.61-4.18Z"/>
                </g>
                <g id="a-8" data-name="a">
                  <path class="cls-3" d="M767.34,122.13l2.97,3-4.19-.68,3.81-1.9-1.98,3.76-.61-4.18Z"/>
                </g>
                <g id="a-9" data-name="a">
                  <path class="cls-3" d="M770.8,129.07l2.97,3-4.19-.68,3.81-1.9-1.98,3.76-.61-4.18Z"/>
                </g>
              </g>
            </g>
            <g id="c-2" data-name="c">
              <g id="e-2" data-name="e">
                <g id="b-3" data-name="b">
                  <g id="a-10" data-name="a">
                    <path class="cls-3" d="M762.79,102.7l2.97,3-4.19-.68,3.81-1.9-1.98,3.76-.61-4.18Z"/>
                  </g>
                  <g id="a-11" data-name="a">
                    <path class="cls-3" d="M766.26,109.65l2.97,3-4.19-.68,3.81-1.9-1.98,3.76-.61-4.18Z"/>
                  </g>
                  <g id="a-12" data-name="a">
                    <path class="cls-3" d="M769.73,116.59l2.97,3-4.19-.68,3.81-1.9-1.98,3.76-.61-4.18Z"/>
                  </g>
                  <g id="a-13" data-name="a">
                    <path class="cls-3" d="M773.19,123.54l2.97,3-4.19-.68,3.81-1.9-1.98,3.76-.61-4.18Z"/>
                  </g>
                </g>
                <g id="a-14" data-name="a">
                  <path class="cls-3" d="M776.66,130.49l2.97,3-4.19-.68,3.81-1.9-1.98,3.76-.61-4.18Z"/>
                </g>
              </g>
              <g id="b-4" data-name="b">
                <g id="a-15" data-name="a">
                  <path class="cls-3" d="M768.65,104.11l2.97,3-4.19-.68,3.81-1.9-1.98,3.76-.61-4.18Z"/>
                </g>
                <g id="a-16" data-name="a">
                  <path class="cls-3" d="M772.12,111.06l2.97,3-4.19-.68,3.81-1.9-1.98,3.76-.61-4.18Z"/>
                </g>
                <g id="a-17" data-name="a">
                  <path class="cls-3" d="M775.59,118.01l2.97,3-4.19-.68,3.81-1.9-1.98,3.76-.61-4.18Z"/>
                </g>
                <g id="a-18" data-name="a">
                  <path class="cls-3" d="M779.05,124.95l2.97,3-4.19-.68,3.81-1.9-1.98,3.76-.61-4.18Z"/>
                </g>
              </g>
            </g>
          </g>
          <g id="d-2" data-name="d">
            <g id="c-3" data-name="c">
              <g id="e-3" data-name="e">
                <g id="b-5" data-name="b">
                  <g id="a-19" data-name="a">
                    <path class="cls-3" d="M771.05,98.58l2.97,3-4.19-.68,3.81-1.9-1.98,3.76-.61-4.18Z"/>
                  </g>
                  <g id="a-20" data-name="a">
                    <path class="cls-3" d="M774.51,105.53l2.97,3-4.19-.68,3.81-1.9-1.98,3.76-.61-4.18Z"/>
                  </g>
                  <g id="a-21" data-name="a">
                    <path class="cls-3" d="M777.98,112.48l2.97,3-4.19-.68,3.81-1.9-1.98,3.76-.61-4.18Z"/>
                  </g>
                  <g id="a-22" data-name="a">
                    <path class="cls-3" d="M781.45,119.42l2.97,3-4.19-.68,3.81-1.9-1.98,3.76-.61-4.18Z"/>
                  </g>
                </g>
                <g id="a-23" data-name="a">
                  <path class="cls-3" d="M784.91,126.37l2.97,3-4.19-.68,3.81-1.9-1.98,3.76-.61-4.18Z"/>
                </g>
              </g>
              <g id="b-6" data-name="b">
                <g id="a-24" data-name="a">
                  <path class="cls-3" d="M776.91,100l2.97,3-4.19-.68,3.81-1.9-1.98,3.76-.61-4.18Z"/>
                </g>
                <g id="a-25" data-name="a">
                  <path class="cls-3" d="M780.37,106.94l2.97,3-4.19-.68,3.81-1.9-1.98,3.76-.61-4.18Z"/>
                </g>
                <g id="a-26" data-name="a">
                  <path class="cls-3" d="M783.84,113.89l2.97,3-4.19-.68,3.81-1.9-1.98,3.76-.61-4.18Z"/>
                </g>
                <g id="a-27" data-name="a">
                  <path class="cls-3" d="M787.31,120.84l2.97,3-4.19-.68,3.81-1.9-1.98,3.76-.61-4.18Z"/>
                </g>
              </g>
            </g>
            <g id="c-4" data-name="c">
              <g id="e-4" data-name="e">
                <g id="b-7" data-name="b">
                  <g id="a-28" data-name="a">
                    <path class="cls-3" d="M779.3,94.46l2.97,3-4.19-.68,3.81-1.9-1.98,3.76-.61-4.18Z"/>
                  </g>
                  <g id="a-29" data-name="a">
                    <path class="cls-3" d="M782.76,101.41l2.97,3-4.19-.68,3.81-1.9-1.98,3.76-.61-4.18Z"/>
                  </g>
                  <g id="a-30" data-name="a">
                    <path class="cls-3" d="M786.23,108.36l2.97,3-4.19-.68,3.81-1.9-1.98,3.76-.61-4.18Z"/>
                  </g>
                  <g id="a-31" data-name="a">
                    <path class="cls-3" d="M789.7,115.31l2.97,3-4.19-.68,3.81-1.9-1.98,3.76-.61-4.18Z"/>
                  </g>
                </g>
                <g id="a-32" data-name="a">
                  <path class="cls-3" d="M793.16,122.25l2.97,3-4.19-.68,3.81-1.9-1.98,3.76-.61-4.18Z"/>
                </g>
              </g>
              <g id="b-8" data-name="b">
                <g id="a-33" data-name="a">
                  <path class="cls-3" d="M785.16,95.88l2.97,3-4.19-.68,3.81-1.9-1.98,3.76-.61-4.18Z"/>
                </g>
                <g id="a-34" data-name="a">
                  <path class="cls-3" d="M788.62,102.83l2.97,3-4.19-.68,3.81-1.9-1.98,3.76-.61-4.18Z"/>
                </g>
                <g id="a-35" data-name="a">
                  <path class="cls-3" d="M792.09,109.77l2.97,3-4.19-.68,3.81-1.9-1.98,3.76-.61-4.18Z"/>
                </g>
                <g id="a-36" data-name="a">
                  <path class="cls-3" d="M795.56,116.72l2.97,3-4.19-.68,3.81-1.9-1.98,3.76-.61-4.18Z"/>
                </g>
              </g>
            </g>
          </g>
          <g id="c-5" data-name="c">
            <g id="e-5" data-name="e">
              <g id="b-9" data-name="b">
                <g id="a-37" data-name="a">
                  <path class="cls-3" d="M787.55,90.35l2.97,3-4.19-.68,3.81-1.9-1.98,3.76-.61-4.18Z"/>
                </g>
                <g id="a-38" data-name="a">
                  <path class="cls-3" d="M791.02,97.29l2.97,3-4.19-.68,3.81-1.9-1.98,3.76-.61-4.18Z"/>
                </g>
                <g id="a-39" data-name="a">
                  <path class="cls-3" d="M794.48,104.24l2.97,3-4.19-.68,3.81-1.9-1.98,3.76-.61-4.18Z"/>
                </g>
                <g id="a-40" data-name="a">
                  <path class="cls-3" d="M797.95,111.19l2.97,3-4.19-.68,3.81-1.9-1.98,3.76-.61-4.18Z"/>
                </g>
              </g>
              <g id="a-41" data-name="a">
                <path class="cls-3" d="M801.42,118.13l2.97,3-4.19-.68,3.81-1.9-1.98,3.76-.61-4.18Z"/>
              </g>
            </g>
            <g id="b-10" data-name="b">
              <g id="a-42" data-name="a">
                <path class="cls-3" d="M793.41,91.76l2.97,3-4.19-.68,3.81-1.9-1.98,3.76-.61-4.18Z"/>
              </g>
              <g id="a-43" data-name="a">
                <path class="cls-3" d="M796.87,98.71l2.97,3-4.19-.68,3.81-1.9-1.98,3.76-.61-4.18Z"/>
              </g>
              <g id="a-44" data-name="a">
                <path class="cls-3" d="M800.34,105.66l2.97,3-4.19-.68,3.81-1.9-1.98,3.76-.61-4.18Z"/>
              </g>
              <g id="a-45" data-name="a">
                <path class="cls-3" d="M803.81,112.6l2.97,3-4.19-.68,3.81-1.9-1.98,3.76-.61-4.18Z"/>
              </g>
            </g>
          </g>
          <g id="e-6" data-name="e">
            <g id="b-11" data-name="b">
              <g id="a-46" data-name="a">
                <path class="cls-3" d="M795.8,86.23l2.97,3-4.19-.68,3.81-1.9-1.98,3.76-.61-4.18Z"/>
              </g>
              <g id="a-47" data-name="a">
                <path class="cls-3" d="M799.27,93.18l2.97,3-4.19-.68,3.81-1.9-1.98,3.76-.61-4.18Z"/>
              </g>
              <g id="a-48" data-name="a">
                <path class="cls-3" d="M802.73,100.12l2.97,3-4.19-.68,3.81-1.9-1.98,3.76-.61-4.18Z"/>
              </g>
              <g id="a-49" data-name="a">
                <path class="cls-3" d="M806.2,107.07l2.97,3-4.19-.68,3.81-1.9-1.98,3.76-.61-4.18Z"/>
              </g>
            </g>
            <g id="a-50" data-name="a">
              <path class="cls-3" d="M809.67,114.02l2.97,3-4.19-.68,3.81-1.9-1.98,3.76-.61-4.18Z"/>
            </g>
          </g>
        </g>
      </g>
    </g>
    <g class="cls-11">
      <g>
        <path class="cls-10" d="M-16.46,3.12L90.25-14.98l9.05,53.35L-7.41,56.47-16.46,3.12Z"/>
        <g class="cls-8">
          <g>
            <path d="M-16.46,3.12l57.88,17.63M36.89-5.93L-11.94,29.8"/>
            <polygon class="cls-3" points="40.63 23.34 12.98 14.92 -10.34 31.98 -13.54 27.61 6.51 12.94 -17.25 5.71 -15.67 .53 11.97 8.95 35.29 -8.11 38.49 -3.75 18.44 10.92 42.2 18.16 40.63 23.34"/>
          </g>
        </g>
        <g class="cls-2">
          <g>
            <path d="M-16.46,3.12l57.88,17.63M36.89-5.93L-11.94,29.8"/>
            <polygon class="cls-4" points="40.89 22.47 12.81 13.92 -10.87 31.25 -13 28.34 8.5 12.61 -16.99 4.84 -15.94 1.39 12.14 9.94 35.83 -7.39 37.96 -4.47 16.45 11.26 41.94 19.02 40.89 22.47"/>
          </g>
        </g>
        <g>
          <path d="M10.21-1.41l4.52,26.68M-14.2,16.46L39.15,7.41"/>
          <polygon class="cls-3" points="19.18 24.52 10.29 26.03 8.78 17.13 -13.45 20.9 -14.95 12.01 7.28 8.24 5.77 -.65 14.66 -2.16 16.17 6.73 38.4 2.96 39.91 11.85 17.68 15.63 19.18 24.52"/>
        </g>
        <g>
          <path d="M10.21-1.41l4.52,26.68M-14.2,16.46L39.15,7.41"/>
          <polygon class="cls-4" points="17.41 24.82 12.07 25.72 10.26 15.05 -13.75 19.13 -14.65 13.79 9.36 9.72 7.55 -.95 12.88 -1.86 14.69 8.81 38.7 4.74 39.61 10.08 15.6 14.15 17.41 24.82"/>
        </g>
        <g>
          <g id="c-6" data-name="c">
            <path class="cls-3" d="M15.64,30.61l2.36,4.54,4.41-2.58-2.08,4.67,4.77,1.84-4.95,1.29,1.54,4.88-4.09-3.06-2.85,4.24-.16-5.11-5.1.41,3.9-3.31-3.5-3.73,5.02.99.73-5.06Z"/>
          </g>
          <g id="c-7" data-name="c">
            <path class="cls-3" d="M70.46,30.2l1.12,2.16,2.1-1.23-.99,2.22,2.27.87-2.36.61.73,2.32-1.95-1.46-1.36,2.02-.07-2.43-2.43.2,1.86-1.58-1.67-1.77,2.39.47.35-2.41Z"/>
          </g>
          <g id="c-8" data-name="c">
            <path class="cls-3" d="M53.54,11.34l1.12,2.16,2.1-1.23-.99,2.22,2.27.87-2.36.61.73,2.32-1.95-1.46-1.36,2.02-.07-2.43-2.43.2,1.86-1.58-1.67-1.77,2.39.47.35-2.41Z"/>
          </g>
          <g id="c-9" data-name="c">
            <path class="cls-3" d="M64.43-5.37l1.12,2.16,2.1-1.23-.99,2.22,2.27.87-2.36.61.73,2.32-1.95-1.46-1.36,2.02-.07-2.43-2.43.2,1.86-1.58-1.67-1.77,2.39.47.35-2.41Z"/>
          </g>
          <g id="c-10" data-name="c">
            <path class="cls-3" d="M78.13,3.51l1.12,2.16,2.1-1.23-.99,2.22,2.27.87-2.36.61.73,2.32-1.95-1.46-1.36,2.02-.07-2.43-2.43.2,1.86-1.58-1.67-1.77,2.39.47.35-2.41Z"/>
          </g>
          <g id="d-3" data-name="d">
            <path class="cls-3" d="M73.43,15.32l.82,1.33,1.55-.15-1.01,1.19.62,1.43-1.44-.59-1.17,1.03.11-1.56-1.34-.79,1.51-.37.34-1.52Z"/>
          </g>
        </g>
      </g>
    </g>
    <g>
      <g>
        <path class="cls-3" d="M120.45,53.36v3c0,4.17,3.67,7.5,7.17,8.83l-3.33,4.67c-2.3-1.1-4.87-2.97-6.83-5.5-2,2.7-4.63,4.73-6.83,5.83l-3.5-4.67c3.5-1.33,7.33-5,7.33-9.17v-3h6ZM118.45,71.37v4.83h16.5l.5,5.33h-21.17c-1.17,0-1.83-.67-1.83-1.83v-8.33h6ZM134.79,52.7v21.5h-6v-21.5h6Z"/>
        <path class="cls-3" d="M143.11,58.53h-5.5l-.5-5h17.34v3.67h3.33v-4.5h6v16.5h-6v-7h-4.67v-3.67h-4.33c.4,3.6,4.6,4.93,7.33,6l-3.5,4.5c-2.03-.83-4.63-2.17-6.67-4.33-1.97,2.4-4.7,4-6.67,4.83l-3.67-4.5c2.73-1.07,6.9-3,7.5-6.5ZM139.95,75.87c0-4.17,4.17-6.5,12.17-6.5s12.17,2.33,12.17,6.5-4.17,6.33-12.17,6.33-12.17-2.17-12.17-6.33ZM158.12,75.87c0-1.17-2-1.67-6-1.83-4,0-6,.67-6,1.83s1.83,1.83,6,1.67c4,0,6-.5,6-1.67Z"/>
        <path class="cls-3" d="M191.95,53.2v4.5h-17.67v2.33h17.67v4.5h-8.67v1.83h10.84v4.67h-27.84v-4.67h10.67v-1.83h-6.67c-1.17,0-1.83-.67-1.83-1.83v-9.5h23.5ZM191.95,81.87h-6v-4.67h-17.67v-4.67h23.67v9.33Z"/>
        <path class="cls-3" d="M199.45,61.7v-1.83h-4.67l-.5-5.33h15.5v5.33h-4.83v1.83c0,5.37,2.87,9.57,5.83,12.17v-21.17h4.83v9.84h1.83v-9.84h4.83v29.01h-4.83v-13h-1.83v13h-4.83v-7l-3.5,3.5c-1.63-1.37-3.57-3.57-5.17-6.5-1.53,3.03-3.5,5.27-5.17,6.67l-4-3.83c3-2.17,6.5-7.17,6.5-12.84Z"/>
        <path class="cls-3" d="M223.95,66.03c0-8.33,2.33-12.5,7.17-12.5,3.93,0,6.2,2.93,6.83,8.84h2v-9.67h5v29.01h-5v-13.67h-1.83c-.4,7-2.73,10.33-7,10.33-4.83,0-7.17-4-7.17-12.34ZM232.95,66.03c0-5-.67-7.17-1.83-7.17-1.33,0-2,2.17-2,7.17s.67,7.17,2,7.17c1.17,0,1.83-2.17,1.83-7.17ZM251.28,52.7v29.01h-5v-29.01h5Z"/>
        <path class="cls-3" d="M275.61,54.53v5.17h-6.33v12c2.73-.07,4.67-.4,7-.83l.5,5.33c-3.6.6-6.37,1.07-11.5,1.17-1.17,0-1.67-.67-1.67-1.83v-21h12ZM282.95,52.7v9.84h1.83v-9.84h5.17v29.01h-5.17v-12.84h-1.83v12.84h-5.17v-29.01h5.17Z"/>
        <path class="cls-3" d="M303.45,51.7v2.33h6.17v4.5h-17.84l-.33-4.5h6.33v-2.33h5.67ZM292.28,65.37c0-3.83,3-6.17,8.34-6.17s8.17,2.33,8.17,6.17-3,6.17-8.17,6.17-8.34-2.17-8.34-6.17ZM301.11,73.03v3.5h16.5l.5,5h-21.17c-1.17,0-1.83-.67-1.83-1.83v-6.67h6ZM303.28,65.37c0-1.17-1-2-2.67-2-1.83,0-2.83.83-2.83,2,0,1.33,1,2,2.83,2,1.67,0,2.67-.67,2.67-2ZM317.45,52.7v6h3.33v5.5h-3.33v10h-6v-21.5h6Z"/>
        <path class="cls-3" d="M345.95,54.53c1.17,0,1.67.5,1.67,1.67v21.17h-14c-1.17,0-1.83-.67-1.83-1.83v-21h14.17ZM337.45,59.7v12.34h4.5v-12.34h-4.5ZM357.12,52.7v29.01h-6v-29.01h6Z"/>
        <path class="cls-3" d="M387.45,64.03v4.83h-10.84v2.67h8.67v10.33h-6v-5.33h-17.67v-5h8.67v-2.67h-10.67v-4.83h27.84ZM383.95,53.2c1.17,0,1.67.5,1.67,1.67-.17,2.5-.5,4.83-1,8l-6-.5c.33-1.3.6-2.67.83-4.17h-17.5l-.5-5h22.5Z"/>
        <path class="cls-3" d="M388.78,62.03c0-4.83,3.5-8.17,9.17-8.17,5.33,0,9,3.33,9,8.17s-3.67,8.17-9,8.17c-5.67,0-9.17-3.17-9.17-8.17ZM408.28,72.53v5.5c-3.17.5-11.17,1-16.67,1h-2.83v-5.5h2.83c5.5,0,13.5-.5,16.67-1ZM401.11,62.03c0-1.83-1.33-3.17-3.17-3.17-2,0-3.33,1.33-3.33,3.17,0,2,1.33,3.33,3.33,3.33,1.83,0,3.17-1.33,3.17-3.33ZM415.45,52.7v29.01h-5.83v-29.01h5.83Z"/>
        <path class="cls-3" d="M455.12,64.7v5h-10.33v4.17h-6.17v-4.17h-11.34v-5h27.84ZM451.62,53.2c1.17,0,1.67.5,1.67,1.67-.17,2.83-.5,5.83-1,8.84l-6-.33c.3-1.47.6-3.13.83-4.83h-17.5l-.5-5.33h22.5ZM435.11,71.87v4.67h17.84l.5,5h-22.17c-1.17,0-1.83-.67-1.83-1.83v-7.83h5.67Z"/>
        <path class="cls-3" d="M467.95,54.03v6.33c0,6.17,3,10.5,7.17,13.5l-4,4.33c-2.13-1.6-4.4-4.2-6.17-7.5-1.83,3.43-4.17,6.1-6.17,7.67l-4.17-4.33c4.17-3,7.33-7.5,7.33-13.67v-6.33h6ZM481.78,52.7v9.84h3.33v6.17h-3.33v13h-6v-29.01h6Z"/>
        <path class="cls-3" d="M491.11,58.53h-5.5l-.5-5h17.34v5h-5.67c.4,3.6,4.6,4.93,7.33,6l-3.5,4.5c-2.03-.83-4.63-2.17-6.67-4.33-1.97,2.4-4.7,4-6.67,4.83l-3.67-4.5c2.73-1.07,6.9-3,7.5-6.5ZM510.78,81.87h-6v-6.17h-16.84v-5.17h22.84v11.34ZM510.78,52.7v5h3.33v5.5h-3.33v6h-6v-16.5h6Z"/>
        <path class="cls-3" d="M520.11,58.7h-5.5l-.5-5.17h17.34v4h3.33v-4.83h6v21.5h-6v-11.5h-4.67v-4h-4.33c.67,4.13,5.04,6.24,7.33,7l-3.5,4.33c-2.03-.73-4.63-2.27-6.67-4.67-2,2.6-4.73,4.33-6.67,5.17l-3.67-4.5c2.3-.77,6.8-3.1,7.5-7.33ZM523.61,71.37v4.83h17.34l.5,5.33h-22c-1.17,0-1.83-.67-1.83-1.83v-8.33h6Z"/>
        <path class="cls-3" d="M571.12,63.53v4.33h-27.84v-4.33h27.84ZM544.61,57.53c0-3.67,4-5.33,12.5-5.33s12.5,1.67,12.5,5.33-4,5.17-12.5,5.17-12.5-1.67-12.5-5.17ZM568.95,69.03v8.33h-18v.83h18l.33,3.83h-22c-1.17,0-1.83-.67-1.83-1.83v-6.5h18v-.83h-18v-3.83h23.5ZM562.78,57.53c0-.83-1.67-1.33-5.67-1.33s-5.67.5-5.67,1.33,1.83,1.17,5.67,1.17,5.67-.33,5.67-1.17Z"/>
        <path class="cls-3" d="M588.11,61.37v-1.33h-5.33l-.5-5.5h17.34v5.5h-5.67v1.33c0,5.67,3.5,9.83,7.33,12.5l-4,4.33c-2.13-1.6-4.43-4.03-6.17-7.17-1.8,3.2-4.17,5.77-6.17,7.33l-4.17-4.33c4-2.67,7.33-7,7.33-12.67ZM608.45,52.7v29.01h-6v-29.01h6Z"/>
        <path class="cls-3" d="M617.11,61.37v-1.33h-5.33l-.5-5.5h17.34v5.5h-5.67v1.33c0,5.67,3.5,9.83,7.33,12.5l-4,4.33c-2.13-1.6-4.43-4.03-6.17-7.17-1.8,3.2-4.17,5.77-6.17,7.33l-4.17-4.33c4-2.67,7.33-7,7.33-12.67ZM637.45,52.7v29.01h-6v-29.01h6Z"/>
        <path class="cls-3" d="M651.44,51.7v2.33h6.17v4.17h-17.84l-.33-4.17h6.33v-2.33h5.67ZM640.28,64.53c0-3.5,3-5.67,8.33-5.67s8.17,2.17,8.17,5.67-3,5.5-8.17,5.5-8.33-2-8.33-5.5ZM648.78,71.03v1.83h11v-1.83h5.67v10.67h-20.5c-1.17,0-1.83-.67-1.83-1.83v-8.84h5.67ZM651.28,64.53c0-1-1-1.67-2.67-1.67-1.83,0-2.83.67-2.83,1.67s1,1.67,2.83,1.67c1.67,0,2.67-.67,2.67-1.67ZM659.78,77.87v-1.17h-11v1.17h11ZM665.45,52.7v4.5h3.5v5.33h-3.5v7.5h-6v-17.34h6Z"/>
        <path class="cls-3" d="M676.28,54.36v16.84c4.03-.07,7.4-.37,10.17-.83l.33,5.83c-3.63.6-8.67,1.07-14.84,1.17-1.17,0-1.67-.67-1.67-1.83v-21.17h6ZM695.45,52.7v29.01h-6v-29.01h6Z"/>
        <path class="cls-3" d="M713.78,54.53v5.17h-9v12.17c4.1-.17,7.57-.53,10.33-1l.5,5.33c-3.8.6-9,1.07-15.17,1.17-1.17,0-1.67-.67-1.67-1.83v-21h15ZM723.45,52.7v9.84h3.33v6.17h-3.33v13h-6v-29.01h6Z"/>
        <path class="cls-3" d="M727.61,78.54c0-2,1.5-3.67,3.67-3.67,1.83,0,3.33,1.67,3.5,3.67-.17,2-1.67,3.5-3.5,3.5-2.17,0-3.67-1.5-3.67-3.5Z"/>
      </g>
      <rect class="cls-1" x="85.72" y="88.04" width="670.44" height="2"/>
    </g>
  </g>
</svg>