<?xml version="1.0" encoding="UTF-8"?>
<svg id="Layer_1" data-name="Layer 1" xmlns="http://www.w3.org/2000/svg" viewBox="0 0 1000 300">
  <rect width="1000" height="300" fill="#0973e2" stroke-width="0"/>
  <rect y="150" width="1000" height="150" fill="#0987e2" stroke-width="0"/>
  <g>
    <path d="m179.78,117.31c0,7.08-1.35,12.31-4.04,15.7-2.7,3.39-6.7,5.09-12.02,5.09s-9.37-1.7-12.04-5.09c-2.68-3.39-4.01-8.63-4.01-15.7s1.34-12.31,4.01-15.7c2.68-3.39,6.69-5.09,12.04-5.09s9.32,1.7,12.02,5.09c2.7,3.39,4.04,8.63,4.04,15.7Zm-19.2,0c0,4.03.06,7.23.19,9.6.13,2.37.33,4.18.61,5.45.27,1.27.6,2.08.99,2.45.39.37.83.55,1.35.55s.96-.18,1.35-.55c.38-.37.71-1.18.99-2.45.27-1.27.48-3.08.6-5.45.13-2.36.19-5.56.19-9.6s-.06-7.19-.19-9.57c-.13-2.38-.33-4.21-.6-5.47-.28-1.27-.61-2.08-.99-2.45-.38-.37-.83-.55-1.35-.55s-.96.18-1.35.55c-.38.37-.71,1.18-.99,2.45-.28,1.26-.48,3.09-.61,5.47-.13,2.38-.19,5.57-.19,9.57Zm23.21-21.01h13.04v41.25h-13.04v-41.25Z" fill="#fff" stroke-width="0"/>
    <path d="m229.99,97.56v2.75h-6.1l6.66,36.69h-11.44l-5.45-30.03-5.44,30.03h-3.36l6.66-36.69h-6v-2.75h24.47Zm2.25,18.59h-3.85v-2.75h3.85v-17.1h10.4v41.25h-10.4v-21.4Zm11.94-19.85h10.39v41.25h-10.39v-41.25Z" fill="#fff" stroke-width="0"/>
    <path d="m312.16,117.31v2.75h-51.37v-2.75h51.37Zm-33.94-6.05h30.08v2.75h-43.12v-13.69h-2.75v-2.75h15.79v13.69Zm30.08,25.19c-1.94.48-3.79.83-5.55,1.07-1.76.24-3.5.36-5.22.36s-3.47-.12-5.23-.36c-1.76-.24-3.61-.6-5.55-1.07-1.94-.48-3.79-.83-5.56-1.07-1.76-.24-3.5-.36-5.22-.36s-3.46.12-5.22.36c-1.76.24-3.61.6-5.56,1.07v-13.09h13.04v9.02c1.36.07,2.73.21,4.12.41s2.86.5,4.4.91c1.94.48,3.79.83,5.55,1.07,1.76.24,3.5.36,5.23.36s3.46-.12,5.22-.36c1.76-.24,3.61-.6,5.55-1.07v2.75Z" fill="#fff" stroke-width="0"/>
    <path d="m358.52,117.31c0,3.67-.28,6.81-.85,9.43-.57,2.62-1.4,4.78-2.5,6.46-1.1,1.69-2.46,2.92-4.07,3.71-1.61.79-3.48,1.18-5.61,1.18s-4-.39-5.61-1.18c-1.61-.79-2.97-2.03-4.07-3.71-1.1-1.69-1.93-3.84-2.5-6.46-.57-2.62-.85-5.77-.85-9.43s.28-6.81.85-9.43c.57-2.62,1.4-4.78,2.5-6.46,1.1-1.69,2.46-2.92,4.07-3.71,1.61-.79,3.48-1.18,5.61-1.18,3.89,0,6.93,1.38,9.13,4.12,2.2,2.75,3.46,7.19,3.79,13.31h2.53v-17.66h10.4v41.25h-10.4v-20.84h-2.42v.6Zm-15.78,0c0,4.07.04,7.3.14,9.68.09,2.38.25,4.19.47,5.42.22,1.23.5,2.03.85,2.39.35.37.78.55,1.29.55.48,0,.89-.18,1.24-.55.35-.37.63-1.16.85-2.39.22-1.23.38-3.03.5-5.42.11-2.38.17-5.61.17-9.68s-.06-7.3-.17-9.68c-.11-2.38-.28-4.19-.5-5.42-.22-1.23-.5-2.03-.85-2.39-.35-.37-.76-.55-1.24-.55-.51,0-.95.18-1.29.55-.35.37-.63,1.16-.85,2.39-.22,1.23-.38,3.03-.47,5.42-.09,2.38-.14,5.61-.14,9.68Zm30.14-21.01h10.39v41.25h-10.39v-41.25Z" fill="#fff" stroke-width="0"/>
    <path d="m421.77,117.31c0,7.08-1.35,12.31-4.04,15.7-2.7,3.39-6.7,5.09-12.02,5.09s-9.37-1.7-12.04-5.09c-2.68-3.39-4.01-8.63-4.01-15.7s1.34-12.31,4.01-15.7c2.68-3.39,6.69-5.09,12.04-5.09s9.32,1.7,12.02,5.09c2.7,3.39,4.04,8.63,4.04,15.7Zm-19.2,0c0,4.03.06,7.23.19,9.6.13,2.37.33,4.18.61,5.45.27,1.27.6,2.08.99,2.45.39.37.83.55,1.35.55s.96-.18,1.35-.55c.38-.37.71-1.18.99-2.45.27-1.27.48-3.08.6-5.45.13-2.36.19-5.56.19-9.6s-.06-7.19-.19-9.57c-.13-2.38-.33-4.21-.6-5.47-.28-1.27-.61-2.08-.99-2.45-.38-.37-.83-.55-1.35-.55s-.96.18-1.35.55c-.38.37-.71,1.18-.99,2.45-.28,1.26-.48,3.09-.61,5.47-.13,2.38-.19,5.57-.19,9.57Zm23.21-21.01h13.04v41.25h-13.04v-41.25Z" fill="#fff" stroke-width="0"/>
    <path d="m477.93,97.56v2.75h-9.02l9.57,18.54h-13.37l-7.48-14.35-7.42,14.35h-3.36l9.57-18.54h-9.02v-2.75h30.53Zm17.54,38.89c-3.92.95-7.88,1.43-11.88,1.43s-7.96-.48-11.88-1.43c-3.92-.95-7.88-1.43-11.88-1.43s-7.96.48-11.88,1.43v-15.24h13.03v11.11c1.8.04,3.59.16,5.39.38,1.8.22,3.58.55,5.33.99,3.92.95,7.88,1.43,11.88,1.43s7.96-.48,11.88-1.43v2.75Zm-13.58-30.47v-9.68h13.04v29.7h-13.04v-17.27h-6.54v-2.75h6.54Z" fill="#fff" stroke-width="0"/>
    <path d="m553.06,136.45c-4.07.95-8.35,1.43-12.84,1.43s-8.77-.48-12.84-1.43c-4.07-.95-8.35-1.43-12.84-1.43s-8.77.48-12.84,1.43v-2.75c4.07-.95,8.35-1.43,12.84-1.43s8.77.48,12.84,1.43c4.07.95,8.35,1.43,12.84,1.43s8.77-.48,12.84-1.43v2.75Zm-4.4-38.89v2.75h-29.54v9.19h29.54v2.75h-29.54v9.19h30.08v2.75h-43.12v-23.87h-2.75v-2.75h45.32Z" fill="#fff" stroke-width="0"/>
    <path d="m605.53,97.56v2.75h-9.02l9.57,18.54h-13.37l-7.48-14.35-7.42,14.35h-3.36l9.57-18.54h-9.02v-2.75h30.53Zm17.54,38.89c-3.92.95-7.88,1.43-11.88,1.43s-7.96-.48-11.88-1.43c-3.92-.95-7.88-1.43-11.88-1.43s-7.96.48-11.88,1.43v-15.24h13.03v11.11c1.8.04,3.59.16,5.39.38,1.8.22,3.58.55,5.33.99,3.92.95,7.88,1.43,11.88,1.43s7.96-.48,11.88-1.43v2.75Zm-13.58-30.47v-9.68h13.04v29.7h-13.04v-17.27h-6.54v-2.75h6.54Z" fill="#fff" stroke-width="0"/>
    <path d="m655.69,97.56v2.75h-6.1l6.66,18.54h-11.55l-5.39-15.07-5.39,15.07h-3.36l6.66-18.54h-6v-2.75h24.47Zm.55,39.44c-4.95,0-9.02-.17-12.21-.52-3.19-.35-5.7-.85-7.54-1.51-1.83-.66-3.1-1.48-3.79-2.48-.7-.99-1.04-2.13-1.04-3.41s.35-2.42,1.04-3.41c.7-.99,1.96-1.81,3.79-2.48,1.83-.66,4.34-1.16,7.54-1.51,3.19-.35,7.26-.52,12.21-.52s9.02.17,12.21.52c3.19.35,5.7.85,7.53,1.51,1.83.66,3.1,1.49,3.8,2.48.7.99,1.04,2.13,1.04,3.41s-.35,2.42-1.04,3.41c-.7.99-1.96,1.82-3.8,2.48-1.83.66-4.34,1.16-7.53,1.51-3.19.35-7.26.52-12.21.52Zm0-2.75c2.16,0,3.99-.13,5.47-.39,1.49-.26,2.69-.6,3.6-1.04.92-.44,1.58-.98,1.98-1.62.4-.64.6-1.35.6-2.12s-.2-1.48-.6-2.12c-.4-.64-1.06-1.18-1.98-1.62-.92-.44-2.12-.79-3.6-1.04-1.48-.26-3.31-.38-5.47-.38s-3.99.13-5.47.38c-1.49.26-2.69.6-3.6,1.04-.92.44-1.58.98-1.98,1.62-.4.64-.6,1.35-.6,2.12s.2,1.48.6,2.12c.4.64,1.06,1.18,1.98,1.62.92.44,2.12.79,3.6,1.04,1.48.26,3.31.39,5.47.39Zm13.64-24.97h-2.25v10.12h-10.4v-23.1h10.4v10.23h2.25v-10.23h10.39v23.1h-10.39v-10.12Z" fill="#fff" stroke-width="0"/>
    <path d="m709.8,97.01l9.57,39.98h-13.25l-7.54-31.29-7.48,31.29h-3.36l8.91-37.23h-2.64v-2.75h15.78Zm12.98-.72h13.04v41.25h-13.04v-41.25Z" fill="#fff" stroke-width="0"/>
    <path d="m768.27,97.56v2.75h-11.66v33.27s.07.06.11.06.09.02.17.06c3.96,1.25,7.94,1.25,11.93,0v2.75c-4,1.25-7.97,1.25-11.93,0-4-1.25-7.97-1.25-11.93,0v-36.14h-2.75v-2.75h26.07Zm14.91,19.14h-2.25v20.84h-10.4v-41.25h10.4v17.66h2.25v-17.66h10.39v41.25h-10.39v-20.84Z" fill="#fff" stroke-width="0"/>
    <path d="m180.88,166.64v2.75h-33.22v-2.75h33.22Zm-1.1,21.5c0,5.32-1.25,9.29-3.74,11.93-2.49,2.64-6.42,3.96-11.77,3.96s-9.28-1.32-11.77-3.96c-2.49-2.64-3.74-6.62-3.74-11.93s1.25-9.29,3.74-11.94c2.49-2.64,6.42-3.96,11.77-3.96s9.28,1.32,11.77,3.96c2.49,2.64,3.74,6.62,3.74,11.94Zm-3.85-27.06v2.75h-23.32v-2.75h23.32Zm-14.3,27.06c0,2.75.05,4.99.14,6.71.09,1.72.25,3.06.47,4.01.22.95.49,1.59.82,1.92s.73.5,1.21.5.88-.17,1.21-.5.61-.97.83-1.92.38-2.29.47-4.01c.09-1.72.14-3.96.14-6.71s-.05-4.99-.14-6.71c-.09-1.72-.25-3.06-.47-4.02-.22-.95-.5-1.59-.83-1.92s-.73-.5-1.21-.5-.88.17-1.21.5-.6.97-.82,1.92c-.22.95-.38,2.29-.47,4.02-.09,1.72-.14,3.96-.14,6.71Zm21.07-25.85h13.03v17.66h5.17v2.75h-5.17v20.84h-13.03v-41.25Z" fill="#fff" stroke-width="0"/>
    <path d="m254.96,188.37v2.75h-19.14v11.38h-13.04v-11.38h-19.19v-2.75h51.37Zm-4.4-24.8v11.71h-29.54v6.1h30.08v2.75h-43.12v-11.6h29.54v-6.21h-29.54v-2.75h42.57Z" fill="#fff" stroke-width="0"/>
    <path d="m270.69,169.94h2.47v-6.38h9.19v6.38h2.47v-6.38h9.18v17.98h-32.5v-15.23h-2.2v-2.75h11.38v6.38Zm37.23,15.07v9.68h-32.83v3.68c1.72.07,3.44.21,5.14.41s3.38.5,5.03.91c3.78.92,7.64,1.38,11.6,1.38s7.83-.46,11.61-1.38v2.75c-3.78.92-7.65,1.38-11.61,1.38s-7.83-.46-11.6-1.38c-3.78-.92-7.65-1.38-11.61-1.38s-7.83.46-11.6,1.38v-10.5h32.83v-4.18h-32.83v-2.75h45.87Zm-34.76-6.22v-6.1h-2.47v6.1h2.47Zm11.66,0v-6.1h-2.47v6.1h2.47Zm11.71-16.5h11.38v8.53h5.17v2.75h-5.17v9.08h-11.38v-20.35Z" fill="#fff" stroke-width="0"/>
    <path d="m347.52,163.56v20.4h-16.33v15.24c.33.07.65.15.96.22s.63.17.96.28c2.42.7,4.91,1.04,7.48,1.04s5.06-.35,7.48-1.04v2.75c-2.42.7-4.91,1.04-7.48,1.04s-5.06-.35-7.48-1.04c-2.42-.7-4.91-1.04-7.48-1.04s-5.06.35-7.48,1.04v-21.23h16.33v-14.9h-16.33v-2.75h29.37Zm4.57-1.27h13.04v41.25h-13.04v-41.25Z" fill="#fff" stroke-width="0"/>
    <path d="m413.52,183.31c0,3.67-.28,6.81-.85,9.43s-1.4,4.78-2.5,6.46c-1.1,1.69-2.46,2.92-4.07,3.71-1.61.79-3.48,1.18-5.61,1.18s-4-.39-5.61-1.18c-1.61-.79-2.97-2.03-4.07-3.71-1.1-1.69-1.93-3.84-2.5-6.46-.57-2.62-.85-5.77-.85-9.43s.28-6.81.85-9.43c.57-2.62,1.4-4.78,2.5-6.46,1.1-1.69,2.46-2.92,4.07-3.71,1.61-.79,3.48-1.18,5.61-1.18,3.89,0,6.93,1.38,9.13,4.12,2.2,2.75,3.46,7.19,3.79,13.31h2.53v-17.66h10.4v41.25h-10.4v-20.84h-2.42v.61Zm-15.78,0c0,4.07.04,7.3.14,9.68.09,2.38.25,4.19.47,5.42.22,1.23.5,2.03.85,2.39.35.37.78.55,1.29.55.48,0,.89-.18,1.24-.55.35-.37.63-1.16.85-2.39.22-1.23.38-3.03.5-5.42.11-2.38.17-5.61.17-9.68s-.06-7.3-.17-9.68c-.11-2.38-.28-4.19-.5-5.42-.22-1.23-.5-2.03-.85-2.39-.35-.37-.76-.55-1.24-.55-.51,0-.95.18-1.29.55-.35.37-.63,1.16-.85,2.39s-.38,3.03-.47,5.42c-.09,2.38-.14,5.61-.14,9.68Zm30.14-21.01h10.39v41.25h-10.39v-41.25Z" fill="#fff" stroke-width="0"/>
    <path d="m476.77,183.31c0,7.08-1.35,12.31-4.04,15.7s-6.7,5.09-12.02,5.09-9.37-1.7-12.04-5.09c-2.68-3.39-4.01-8.63-4.01-15.7s1.34-12.31,4.01-15.7c2.68-3.39,6.69-5.09,12.04-5.09s9.32,1.7,12.02,5.09c2.7,3.39,4.04,8.63,4.04,15.7Zm-19.2,0c0,4.03.06,7.23.19,9.6.13,2.37.33,4.18.61,5.45.27,1.27.6,2.08.99,2.45.39.37.83.55,1.35.55s.96-.18,1.35-.55.71-1.18.99-2.45c.27-1.26.48-3.08.6-5.45.13-2.36.19-5.56.19-9.6s-.06-7.19-.19-9.57c-.13-2.38-.33-4.21-.6-5.47-.28-1.26-.61-2.08-.99-2.45-.38-.37-.83-.55-1.35-.55s-.96.18-1.35.55c-.38.37-.71,1.18-.99,2.45-.28,1.26-.48,3.09-.61,5.47-.13,2.38-.19,5.57-.19,9.57Zm23.21-21.01h13.04v41.25h-13.04v-41.25Z" fill="#fff" stroke-width="0"/>
    <path d="m532.93,163.56v2.75h-9.02l9.57,18.54h-13.37l-7.48-14.36-7.42,14.36h-3.36l9.57-18.54h-9.02v-2.75h30.53Zm17.54,38.88c-3.92.95-7.88,1.43-11.88,1.43s-7.96-.48-11.88-1.43c-3.92-.95-7.88-1.43-11.88-1.43s-7.96.48-11.88,1.43v-15.24h13.03v11.11c1.8.04,3.59.17,5.39.38,1.8.22,3.58.55,5.33.99,3.92.95,7.88,1.43,11.88,1.43s7.96-.48,11.88-1.43v2.75Zm-13.58-30.47v-9.68h13.04v29.7h-13.04v-17.27h-6.54v-2.75h6.54Z" fill="#fff" stroke-width="0"/>
    <path d="m608.06,202.45c-4.07.95-8.35,1.43-12.84,1.43s-8.77-.48-12.84-1.43c-4.07-.95-8.35-1.43-12.84-1.43s-8.77.48-12.84,1.43v-2.75c4.07-.95,8.35-1.43,12.84-1.43s8.77.48,12.84,1.43c4.07.95,8.35,1.43,12.84,1.43s8.77-.48,12.84-1.43v2.75Zm-4.4-38.88v2.75h-29.54v9.18h29.54v2.75h-29.54v9.19h30.08v2.75h-43.12v-23.87h-2.75v-2.75h45.32Z" fill="#fff" stroke-width="0"/>
    <path d="m679.56,188.37v2.75h-19.14v11.38h-13.04v-11.38h-19.19v-2.75h51.37Zm-17.44-4.79v-17.27h-29.54v-2.75h42.57v20.02h-13.04Z" fill="#fff" stroke-width="0"/>
    <path d="m718.22,192.11h-29.54v-2.75h14.79v-4.12h-19.19v-2.75h51.37v2.75h-19.14v4.12h14.74v13.09h-13.04v-10.34Zm14.13-25.91v2.75h-16.11l16.44,11.61h-16.77l-11.83-8.31-11.77,8.31h-5l16.45-11.61h-16.17v-2.75h44.77Zm-9.29-5.12v2.75h-26.12v-2.75h26.12Z" fill="#fff" stroke-width="0"/>
    <path d="m772.67,183.31c0,7.08-1.35,12.31-4.04,15.7s-6.7,5.09-12.02,5.09-9.37-1.7-12.04-5.09c-2.68-3.39-4.01-8.63-4.01-15.7s1.34-12.31,4.01-15.7c2.68-3.39,6.69-5.09,12.04-5.09s9.32,1.7,12.02,5.09c2.7,3.39,4.04,8.63,4.04,15.7Zm-19.2,0c0,4.03.06,7.23.19,9.6.13,2.37.33,4.18.61,5.45.27,1.27.6,2.08.99,2.45.39.37.83.55,1.35.55s.96-.18,1.35-.55.71-1.18.99-2.45c.27-1.26.48-3.08.6-5.45.13-2.36.19-5.56.19-9.6s-.06-7.19-.19-9.57c-.13-2.38-.33-4.21-.6-5.47-.28-1.26-.61-2.08-.99-2.45-.38-.37-.83-.55-1.35-.55s-.96.18-1.35.55c-.38.37-.71,1.18-.99,2.45-.28,1.26-.48,3.09-.61,5.47-.13,2.38-.19,5.57-.19,9.57Zm23.21-21.01h13.04v41.25h-13.04v-41.25Z" fill="#fff" stroke-width="0"/>
    <path d="m845.76,185.23h-33.99v-2.75h5.39v-10.17h11.39v10.17h17.21v2.75Zm-14.63-5.5v-13.42h-16.33v-2.75h29.09v16.17h-12.76Zm29.54,22.71c-7.55,1.83-15.11,1.83-22.66,0-7.55-1.83-15.11-1.83-22.66,0v-14.19h13.04v10.12c3.23.11,6.43.55,9.62,1.32,7.55,1.83,15.11,1.83,22.66,0v2.75Zm-13.58-40.15h13.03v13.53h5.17v2.75h-5.17v14.52h-13.03v-30.8Z" fill="#fff" stroke-width="0"/>
    <path d="m904.28,175.28h-5.12v9.02h-13.04v-17.98h-15.78v-2.75h28.82v8.96h5.12v-10.23h13.04v29.7h-13.04v-16.72Zm13.58,27.17c-3.92.95-7.88,1.43-11.88,1.43s-7.96-.48-11.88-1.43c-3.92-.95-7.88-1.43-11.88-1.43s-7.96.48-11.88,1.43v-15.24h13.03v11.11c1.8.04,3.59.17,5.39.38,1.8.22,3.58.55,5.33.99,3.92.95,7.88,1.43,11.88,1.43s7.96-.48,11.88-1.43v2.75Z" fill="#fff" stroke-width="0"/>
    <path d="m926.67,189.96h13.04v12.49h-13.04v-12.49Z" fill="#fff" stroke-width="0"/>
  </g>
  <g>
    <g>
      <path d="m451.64,291.92c-6.41,0-12.44-2.5-16.97-7.03-4.53-4.53-7.03-10.56-7.03-16.97s2.5-12.44,7.03-16.97c4.53-4.53,10.56-7.03,16.97-7.03s12.44,2.5,16.97,7.03c4.53,4.53,7.03,10.56,7.03,16.97s-2.5,12.44-7.03,16.97c-4.53,4.53-10.56,7.03-16.97,7.03Zm0-47.06c-12.71,0-23.06,10.34-23.06,23.06s10.34,23.06,23.06,23.06,23.06-10.34,23.06-23.06-10.34-23.06-23.06-23.06Z" fill="#fff" stroke-width="0"/>
      <g id="rheehose_typo" data-name="rheehose typo">
        <g>
          <path d="m447.8,278.85c-.24.15-.55.51-.83.96-.42.68-1.08,2.12-1.12,2.48-.01.1,0,.12.04.17.07.06.17.11.2.08.01,0,.07-.11.13-.23.06-.12.16-.3.22-.39.11-.16.66-.76.68-.74,0,0-.02.07-.05.15-.2.44-.21.71-.03.89.19.2.36.16.68-.15.12-.12.19-.17.19-.14,0,.07.12.24.21.29.11.07.26.09.38.05.14-.05.35-.18.5-.32l.13-.12.02.09c.02.11.11.22.24.28.25.12.6-.04.93-.43.13-.15.21-.33.17-.38-.02-.02-.07.01-.21.14-.24.23-.53.41-.71.45-.1.02-.17-.03-.14-.12.03-.14.06-.17.16-.22.22-.11.52-.31.64-.45.17-.18.31-.45.29-.52-.03-.11-.2-.22-.35-.22-.26,0-.73.45-.96.93-.19.38-.9.8-1,.6-.04-.09.02-.18.14-.23.46-.18.89-.62.89-.92,0-.08-.01-.11-.05-.15-.14-.11-.35-.14-.52-.06-.23.11-.61.58-.71.87-.03.09-.08.15-.26.31-.26.23-.36.3-.4.27-.07-.06.15-.72.37-1.12.14-.25.14-.24.02-.31-.18-.1-.2-.09-.54.22-.17.16-.37.34-.45.42l-.14.14.11-.22c.5-1.04.96-1.76,1.37-2.17.14-.14.15-.15.1-.19-.08-.05-.22-.04-.33.03Zm2.4,1.93c-.06.11-.31.36-.44.45l-.08.06.06-.08c.15-.2.46-.52.5-.52,0,0,0,.05-.04.1Zm-1.24.09c-.07.12-.21.29-.38.42-.1.08-.18.14-.19.14-.04-.03.32-.46.48-.57.11-.07.13-.07.09,0Z" fill="#fff" stroke-width="0"/>
          <path d="m453.7,279.02c-.09.07-.28.36-.44.65-.1.18-.43.88-.47.99,0,.02-.1.06-.26.09-.14.03-.27.07-.29.08-.02.01-.04.01-.04,0,0-.01.37-.91.45-1.11.05-.11.03-.15-.11-.21-.08-.03-.15-.05-.16-.05-.01,0-.06.11-.11.23-.05.12-.15.37-.22.55s-.16.41-.21.53l-.08.2-.2.08c-.11.04-.21.08-.24.09-.02,0-.06.04-.07.07-.03.06-.02.07.03.12.04.05.08.06.17.06.06,0,.11,0,.11,0,0,0-.03.09-.06.18-.08.22-.16.52-.16.61s.12.21.21.21c.05,0,.07-.01.08-.07.04-.19.13-.45.34-.94l.08-.18.3-.1c.16-.06.3-.09.31-.09s-.02.09-.07.2c-.34.82-.46,1.35-.36,1.54.06.11.19.13.19.03,0-.12.31-1,.57-1.6l.12-.29.19-.04c.2-.04.33-.06.32-.03-.36.68-.41,1.03-.15,1.22.06.05.11.06.21.06.11,0,.15-.01.27-.09.13-.09.35-.34.47-.52.16-.27.22-.67.12-.83-.05-.09-.23-.19-.33-.19-.03,0-.08-.02-.11-.05-.07-.07-.14-.06-.25.05l-.1.1h-.24s-.24.02-.24.02l.08-.16c.34-.67.56-1.05.69-1.21l.09-.11-.07-.06s-.11-.07-.16-.08c-.08-.02-.1-.02-.16.03Zm.61,1.75c.07.19-.13.59-.48.94-.18.18-.24.2-.22.06.04-.23.33-.78.5-.95.08-.09.17-.11.2-.04Z" fill="#fff" stroke-width="0"/>
          <path d="m457.74,279.03c-.41.1-.97.47-1.4.91-.3.3-.42.5-.44.72-.02.18.02.3.13.46.1.14.19.21.53.41l.23.14-.42.21c-.42.21-.8.44-.87.54-.12.16.06.4.33.44.26.04.68-.13.96-.38.21-.18.31-.32.35-.48.02-.07.05-.13.08-.15.02-.01.15-.06.28-.1l.24-.08v.06c0,.2.12.39.33.49.12.06.38.06.58-.01.42-.15.9-.57,1.09-.94.14-.28.05-.4-.12-.16-.3.42-.96.86-1.34.89-.15.01-.16,0-.2-.05-.03-.05-.04-.08-.01-.2.04-.19.08-.24.23-.29.29-.09.5-.21.7-.4.21-.2.3-.35.3-.51,0-.14-.07-.24-.21-.31-.12-.06-.12-.06-.25-.02-.3.09-.72.49-.94.89l-.1.18-.23.08c-.13.04-.29.1-.36.13l-.13.05-.16-.11c-.09-.06-.24-.17-.33-.23-.17-.12-.31-.31-.31-.42,0-.14.21-.46.48-.73.34-.33.99-.7,1.32-.74.11-.02.11-.01.11.04,0,.15-.34.63-.65.94-.13.13-.24.25-.24.26,0,.07.33.05.49-.04.27-.15.71-.8.73-1.09.02-.22-.12-.38-.37-.43-.15-.03-.18-.03-.39.02Zm1.26,1.55c-.07.12-.21.26-.41.4-.11.08-.21.13-.22.13-.02-.02.36-.4.51-.51.07-.06.14-.1.14-.09,0,0,0,.04-.02.08Zm-2.28,1.5c-.14.12-.48.34-.64.41-.07.03-.19.07-.26.07h-.12s.16-.09.16-.09c.13-.08.91-.47.95-.48,0,0-.03.04-.09.08Z" fill="#fff" stroke-width="0"/>
          <path d="m445.45,279.24c-.33.05-.72.17-1.09.35-.38.18-.85.58-.88.74-.02.11.02.2.1.25.08.05.14.01.14-.08,0-.19.84-.7,1.42-.86.05-.01.12-.04.17-.05l.08-.02-.09.11c-.05.06-.15.21-.22.33-.07.12-.15.25-.17.29-.09.15-.27.49-.37.71-.09.2-.11.23-.17.25-.08.01-.11.07-.08.17.02.06-.01.16-.14.51-.18.51-.31.95-.31,1.08,0,.07.02.11.08.18.04.05.1.08.12.08.04,0,.1-.11.1-.2,0-.07.41-1.22.43-1.2,0,.01.06.12.1.25.3.8.79,1.4,1.37,1.68h0c.14.07.29.1.44.1h.05c.27,0,.29,0,.39-.07.07-.04.1-.08.1-.11,0-.04,0-.05-.05-.04-.16.05-.38.04-.54,0-.41-.13-.91-.64-1.23-1.27-.11-.21-.31-.69-.31-.74,0-.02.05-.07.13-.11.7-.37,1.27-.93,1.55-1.5.06-.12.07-.19.07-.33,0-.15,0-.18-.07-.26-.2-.25-.55-.32-1.13-.24Zm.81.31c.07.05.07.13-.02.31-.23.47-.73.97-1.18,1.22-.16.09-.17.09-.15.03.03-.09.2-.44.44-.92.23-.45.27-.56.22-.62-.04-.04.03-.05.4-.06.18,0,.25,0,.29.03Z" fill="#fff" stroke-width="0"/>
        </g>
      </g>
      <g>
        <polygon points="447.28 249.24 447.27 249.21 447.28 249.25 447.28 249.24" fill="#fff" stroke-width="0"/>
        <path d="m470.71,267.33c-.05-1.74-.34-3.46-.87-5.12-.56-1.79-1.37-3.47-2.43-5.02l-.03-.05c-.03-.05-.07-.1-.1-.15l-.02-.03c-1.64-2.35-3.75-4.25-6.25-5.66l-.11-.06c-.79-.44-1.62-.83-2.46-1.15-1.15-.44-2.35-.77-3.56-.98-2.14-.37-4.31-.37-6.46,0l-.1.02c-.07.01-.13.02-.2.04h-.01c-.08.02-.16.03-.24.05-.06.01-.11.02-.16.03-.14.03-.27.06-.41.09h0s0,0,0,0h0c-.16.04-.33.08-.52.13-.03,0-.07.02-.1.03h-.05c-.13.05-.26.09-.39.12-.05.02-.1.03-.15.05-.14.04-.28.09-.42.13l-.1.03c-.36.12-.71.25-1.06.39l-.08.03c-.14.06-.28.11-.41.17-.05.02-.1.04-.14.06h-.01c-.11.05-.21.1-.32.15h-.02c-.06.04-.12.07-.18.1-.06.03-.12.06-.18.09l-.04.02c-4.33,2.16-7.66,5.84-9.36,10.37-.13.34-.24.7-.33,1.06-.25.8-.44,1.6-.58,2.4-.44,2.52-.36,5.06.22,7.57.58,2.51,1.64,4.83,3.15,6.89.72.99,1.55,1.92,2.45,2.76.89.83,1.87,1.58,2.91,2.22,1.04.64,2.14,1.19,3.28,1.63,1.15.44,2.35.77,3.56.98.86.15,1.74.24,2.61.27,1.65.05,3.32-.11,4.96-.49,2.51-.58,4.83-1.64,6.89-3.15.99-.72,1.92-1.55,2.76-2.45.83-.89,1.58-1.87,2.22-2.91.64-1.04,1.19-2.14,1.63-3.28.44-1.15.77-2.35.98-3.56.19-1.12.29-2.27.28-3.42v-.16c0-.09,0-.18,0-.26Zm-.61,2.1c-.31,3.82-1.86,7.55-4.36,10.49-2.58,3.04-6.01,5.13-9.9,6.04-1.4.33-2.82.49-4.22.49-3.42,0-6.78-.95-9.76-2.81-4.21-2.62-7.14-6.71-8.26-11.52-.4-1.74-.56-3.51-.46-5.28l.05-.89.22.87c.14.56.33,1.12.57,1.65.88,1.94,2.35,3.49,4.2,4.46.28.17.57.31.88.41.08.03.15.06.23.09.98.37,1.99.57,3.02.6.04,0,.07,0,.11,0-.16.04-.31.08-.46.11-.92-.06-1.84-.26-2.72-.59-2.41-.9-4.32-2.69-5.39-5.03-.25-.55-.44-1.11-.58-1.67-.1,1.74.05,3.5.46,5.24,2.3,9.87,12.21,16.03,22.08,13.73,7.97-1.86,13.51-8.66,14.15-16.41-.14-.71-.37-1.41-.67-2.08-.66-1.46-1.66-2.7-2.9-3.64.01-.05.02-.09.04-.14,1.28.96,2.3,2.23,2.98,3.73.31.68.54,1.39.68,2.11v.02s0,.02,0,.02Zm-3.59-6.92s-.11.07-.3.22c-.42-.27-.85-.51-1.31-.72.01-.03.02-.07.04-.1.05-.17.09-.34.12-.52.01-.09.03-.18.03-.27,0-.09,0-.18,0-.27,0-.18-.02-.36-.05-.54-.04-.18-.08-.35-.15-.53,0,0-.13.15-.33.43-.2.28-.45.68-.73,1.17-.03.06-.07.12-.1.18-.3-.1-.61-.18-.92-.25.25-.51.43-1.11.46-1.74.01-.32,0-.65-.08-.97-.04-.16-.09-.32-.15-.47-.06-.15-.13-.31-.22-.45,0,0-.1.16-.22.44-.13.29-.29.7-.44,1.2-.04.12-.07.25-.1.39-.04.14-.07.28-.1.42-.03.14-.06.29-.09.44-.01.07-.03.15-.04.23-.01.08-.03.16-.04.24,0,.03,0,.06-.01.09-.36-.04-.71-.06-1.07-.07l-.06-.09s-.04-.05-.06-.07c.03-.07.07-.14.11-.23.14-.31.32-.76.44-1.28.11-.52.17-1.13.09-1.71-.04-.3-.11-.6-.22-.87-.12-.28-.26-.55-.46-.79,0,0-.07.15-.14.43-.08.28-.17.68-.22,1.15-.03.24-.04.5-.05.77-.01.28,0,.57.02.88.01.15.03.31.04.47.02.16.04.32.06.48.02.13.04.25.07.38l-.12-.14-.33-.35c-.06-.06-.11-.12-.17-.18l-.18-.17c-.2-.2-.41-.39-.63-.58.02-.06.03-.12.05-.2.07-.31.16-.75.18-1.24.02-.49,0-1.05-.16-1.58-.08-.27-.18-.53-.31-.78-.14-.24-.3-.47-.51-.68,0,0-.05.14-.09.4-.04.26-.08.62-.07,1.06,0,.44.05.97.19,1.52.08.38.21.77.37,1.17-.53-.45-1.09-.88-1.67-1.3.03-.29.06-.75.02-1.29-.04-.45-.14-.94-.33-1.42-.19-.48-.48-.92-.89-1.27,0,0-.03.13-.05.36-.02.23-.02.56.03.96.05.4.15.86.34,1.37.09.25.21.51.35.78.03.07.07.13.11.2-.04-.03-.07-.05-.11-.08-.55-.37-1.12-.73-1.7-1.08,0-.03,0-.06,0-.09,0-.13-.01-.29-.03-.46-.02-.17-.05-.36-.09-.56-.08-.4-.22-.84-.43-1.26-.22-.41-.52-.8-.92-1.11,0,0-.07.47.08,1.18.12.56.39,1.25.91,2-.5-.29-1-.56-1.51-.83l-.26.52c1.27.67,2.5,1.39,3.65,2.17,1.15.78,2.21,1.62,3.12,2.51l.17.17c.06.06.11.11.16.17l.32.34.21.25c-.57.03-1.13.12-1.69.25-1.14.27-2.21.72-3.17,1.33l-1.92.89v-7.01l-10.32,10.54h7.21s-.66,3.3-.66,3.3c-.87,1.01-1.95,1.81-3.17,2.35-.52-.44-1.02-.89-1.49-1.36-.93-.94-1.75-1.94-2.32-2.94-.29-.5-.52-1-.68-1.48-.16-.48-.26-.94-.29-1.38-.03-.44,0-.88.1-1.32.09-.44.26-.89.49-1.35l.09-.17.04-.09.05-.09.21-.35.24-.35c.04-.06.08-.12.13-.17l.13-.17.13-.17c.04-.06.1-.11.15-.17l.29-.35.32-.34c.05-.06.1-.11.16-.17l.17-.17c.91-.89,1.98-1.73,3.12-2.51,1.15-.78,2.38-1.5,3.65-2.17l-.26-.52c-.51.27-1.02.55-1.51.84.52-.75.78-1.45.91-2.01.16-.71.08-1.18.08-1.18-.4.3-.7.7-.92,1.11-.22.42-.35.86-.43,1.26-.08.4-.11.76-.12,1.02,0,.03,0,.06,0,.09-.58.35-1.15.71-1.7,1.08-.04.03-.07.05-.11.08.04-.07.07-.13.11-.2.14-.27.26-.53.35-.78.18-.51.29-.97.34-1.37.05-.4.04-.73.03-.96-.02-.23-.05-.36-.05-.36-.4.36-.7.8-.89,1.27-.19.48-.29.97-.33,1.42-.04.53-.02,1,.02,1.29-.58.42-1.14.85-1.67,1.3.16-.4.29-.8.37-1.18.14-.56.18-1.08.19-1.52,0-.44-.03-.81-.07-1.06-.04-.26-.09-.4-.09-.4-.2.2-.37.43-.51.68-.13.25-.23.51-.31.78-.16.53-.18,1.09-.16,1.58.02.49.1.93.18,1.24.02.07.03.14.05.2-.22.19-.43.39-.63.58l-.18.17c-.06.06-.11.12-.17.18l-.33.35-.12.14c.02-.13.04-.26.07-.38.03-.16.05-.32.06-.48.01-.16.03-.32.04-.47.02-.3.03-.6.02-.88,0-.28-.02-.53-.05-.78-.05-.48-.15-.88-.22-1.15-.08-.27-.14-.43-.14-.43-.2.23-.34.51-.46.79-.12.28-.18.58-.22.87-.09.59-.02,1.2.09,1.72.11.52.3.97.44,1.29.04.09.08.16.11.23-.02.02-.04.05-.06.07l-.14.18-.14.18c-.05.06-.09.12-.13.18l-.25.37-.22.37-.06.09-.03.07c-.01-.14-.03-.29-.04-.43-.04-.33-.08-.65-.13-.97-.01-.08-.03-.16-.04-.24-.01-.08-.03-.15-.04-.23-.03-.15-.06-.3-.09-.44-.03-.14-.07-.29-.1-.42-.03-.13-.07-.26-.1-.39-.14-.5-.31-.92-.44-1.2-.13-.28-.22-.44-.22-.44-.09.14-.16.29-.22.45-.06.15-.11.31-.15.47-.07.32-.09.66-.08.97.04.65.22,1.27.48,1.78.24.51.57.93.81,1.2.08.09.15.16.21.23-.22.46-.38.92-.48,1.37-.01.06-.02.12-.04.18-.22-.42-.45-.86-.67-1.3-.3-.58-.6-1.16-.87-1.64-.28-.49-.54-.89-.73-1.17-.2-.28-.33-.43-.33-.43-.06.18-.11.35-.15.53-.03.18-.04.37-.05.55,0,.09,0,.18,0,.27,0,.09.02.18.03.27.03.18.07.35.12.52.1.34.26.65.43.93.19.28.39.53.6.75.44.43.89.72,1.25.9.12.06.23.11.32.15-.04.33-.05.66-.02.99.01.19.04.38.07.57,0,0-.02-.01-.02-.02-.12-.11-.25-.23-.38-.34-.12-.11-.26-.23-.39-.34-.12-.11-.25-.23-.38-.34-.13-.11-.25-.23-.38-.34-.13-.11-.26-.23-.37-.34-.25-.23-.48-.44-.7-.64-.43-.4-.84-.75-1.12-.97-.28-.23-.47-.35-.47-.35-.05.41.01.83.12,1.21.06.19.13.38.22.55.08.17.19.34.3.49.21.31.49.57.77.78.28.22.59.39.88.52.3.13.6.23.86.29.27.07.53.11.73.13.16.02.29.03.4.03.12.54.33,1.09.6,1.65-.54-.29-1.08-.53-1.61-.77-.68-.3-1.35-.57-1.94-.82-.29-.12-.57-.23-.82-.33-.25-.1-.47-.18-.65-.24-.37-.13-.6-.18-.6-.18.06.22.12.44.22.63.1.2.2.38.32.56.13.17.27.33.41.47.14.14.31.27.47.38.08.06.16.11.25.16.09.05.18.09.26.14.18.08.35.16.53.22.37.12.72.19,1.07.23.35.04.68.04.98.03.31-.01.58-.04.81-.08.18-.03.33-.06.45-.08.05.08.09.17.14.25.27.47.6.94.95,1.4-.66-.23-1.31-.38-1.95-.49-.79-.14-1.56-.23-2.24-.3-.34-.03-.66-.05-.94-.07-.28-.02-.53-.02-.74-.02-.42,0-.66.02-.66.02.12.2.26.38.41.55.15.16.32.31.49.44.18.13.36.24.55.34.19.1.39.17.58.24.2.07.4.12.6.15.2.04.4.07.6.08.41.03.79.02,1.17-.03.75-.08,1.41-.27,1.88-.43.2-.07.36-.13.49-.18.38.46.79.91,1.22,1.35.07.07.15.14.22.22-.76-.16-1.49-.22-2.2-.23-.87-.01-1.69.05-2.41.14-.72.09-1.33.21-1.76.32-.05.01-.09.02-.13.03-1.58-.92-2.84-2.31-3.62-4.01-.52-1.16-.8-2.38-.8-3.63.41-2.24,1.24-4.37,2.46-6.34,2.57-4.14,6.61-7.03,11.36-8.13,1.57-.37,3.18-.53,4.77-.47,3.17.1,6.28,1.06,9.01,2.75,4.14,2.57,7.03,6.61,8.13,11.36.24,1.04.39,2.1.45,3.16-.76-1.63-1.91-2.99-3.34-4,0-.14,0-.29-.01-.43Zm-.53.39c-.38-.24-.77-.46-1.18-.65.02-.04.04-.08.05-.12.43.2.85.43,1.24.68-.02.01-.03.03-.05.04-.02.02-.04.03-.06.05Zm-24.71,10.62c1.13.17,2.29.13,3.42-.13.37-.09.73-.19,1.08-.32.04.03.08.07.12.1-.38.14-.77.26-1.17.36-.69.16-1.39.24-2.09.24-.64,0-1.27-.07-1.9-.2.16,0,.32-.02.48-.03.02,0,.04,0,.06,0Zm.49-.07c.23-.04.46-.09.68-.15.78-.21,1.45-.51,1.93-.75.21-.11.38-.2.51-.27.25.23.5.46.76.69-.32.12-.65.21-.99.29-.95.22-1.93.28-2.89.19Zm8.32-6.4v-.07h.02s-.01.07-.01.07h0Zm8.23-5.59c.59-.14,1.18-.22,1.77-.25.04.04.07.09.11.13-.62.03-1.24.11-1.85.25-1.03.24-2,.64-2.88,1.16l.2-.27c.82-.46,1.71-.8,2.65-1.02Zm5.35.22s-.04.08-.07.12c-.3-.1-.61-.18-.91-.24.02-.04.04-.08.06-.12.31.07.61.15.92.25Zm-17.1,12.05c-.16-.02-.33-.03-.49-.04.1-.04.2-.08.3-.12.06.05.13.1.19.16Zm-.85-.05c-.15,0-.3,0-.45,0,.29-.08.58-.18.86-.29.04.03.08.07.12.1-.18.07-.35.14-.54.2Zm1.01-.55c1.31-.62,2.46-1.54,3.36-2.67v.21c-.88,1.07-1.98,1.94-3.24,2.55-.04-.03-.08-.06-.12-.09Zm3.39-6.49l-2.15-.05,1.92-1.01.37-.2-.25-.34-1.3-1.76,1.94.9.4.18.1-.43.52-2.11.52,2.11.1.43.4-.18.51-.24v.17h.11c-.99,1-1.78,2.22-2.29,3.58-.08.21-.16.41-.25.6l-.68.84v-.2l.37-1.87.08-.42h-.43Zm3.39-2.51h.2c-1,.96-1.8,2.13-2.33,3.45l-.28.35c.02-.06.05-.12.07-.17.52-1.39,1.33-2.62,2.35-3.63Zm-.16.92l-.25.34h.02c-.49.63-.91,1.32-1.23,2.06l-.1-.12c.5-1.1,1.19-2.09,2.04-2.92l-.47.64Zm-.45,2.02l.43,2.14-1.34-1.65c.33-.76.75-1.47,1.26-2.1l.23.12,1.92,1.01-2.15.05h-.43s.08.43.08.43Zm2.11-3.65c1.01-.72,2.17-1.25,3.42-1.54.66-.15,1.33-.24,1.99-.25l.06.08s.03.03.04.05c-.69,0-1.38.09-2.07.25-1.38.32-2.65.94-3.73,1.78l.28-.38Zm6.13-1.78c.19.01.39.03.58.05,0,.04-.01.09-.02.13-.16-.02-.31-.03-.47-.04l-.09-.14Zm1.42.18c.31.06.62.14.93.24-.02.04-.04.08-.06.12-.31-.1-.63-.17-.94-.24.03-.04.05-.08.08-.12Zm-.87.14s0,.04,0,.06c-.01.14-.03.29-.04.44-.1-.18-.2-.35-.31-.53.12,0,.24.02.36.03Zm.32.6c.12-.13.25-.3.39-.49.32.06.64.14.96.24-.12.24-.25.48-.38.73-.22.44-.45.88-.67,1.3-.01-.06-.02-.12-.04-.18-.1-.45-.26-.91-.48-1.37.06-.06.13-.14.21-.22Zm.35,2.09c.09-.04.19-.09.32-.15.36-.18.8-.47,1.25-.9.21-.21.41-.46.6-.75.02-.03.03-.06.05-.08.34.16.67.33.99.53-.19.16-.4.35-.62.55-.22.2-.45.41-.7.64-.12.11-.25.22-.37.34-.13.11-.25.23-.38.34-.13.11-.26.23-.38.34-.13.11-.26.23-.39.34-.13.11-.26.23-.38.34,0,0-.02.01-.02.02.03-.19.06-.38.07-.57.02-.33.01-.66-.02-.99Zm-.61-3.23c-.27-.03-.55-.05-.82-.06l-.1-.14c.32,0,.63.03.95.06,0,.04-.01.09-.02.13Zm-11.65,8.36v.23c-.93,1.27-2.16,2.28-3.6,2.94-.04-.03-.08-.06-.12-.1,1.5-.67,2.78-1.73,3.71-3.07Zm-8.3,6.18c.91-.02,1.81-.27,2.61-.59.79-.32,1.48-.71,1.96-1.01.22-.14.4-.26.53-.35.22.17.45.34.68.51.38.28.77.54,1.16.8-.9-.02-1.75.08-2.54.24-.96.2-1.84.5-2.58.81-.75.31-1.36.64-1.79.9-.43.25-.66.43-.66.43.83.46,1.79.55,2.73.42.94-.13,1.87-.48,2.67-.9.81-.42,1.49-.89,1.98-1.26.23-.17.41-.32.54-.43.09.06.18.12.27.17.3.19.6.38.9.55.15.09.3.18.45.26l.22.12.19.1.25-.52-.18-.1-.22-.12c-.15-.08-.29-.17-.44-.25-.3-.17-.59-.36-.89-.54-.59-.37-1.17-.77-1.73-1.18-.32-.23-.63-.47-.93-.71,1.2-.59,2.26-1.42,3.12-2.43v3.81l10.32-10.57h-5.89c1.12-.95,2.47-1.64,3.96-1.99.7-.16,1.42-.24,2.13-.24l.23.34.21.35.05.09.04.09.09.17c.23.46.39.91.49,1.35.1.44.13.87.09,1.31-.03.44-.13.9-.29,1.38-.16.48-.39.98-.68,1.47-.58,1-1.39,2-2.32,2.94-.94.94-2,1.82-3.12,2.64-.56.41-1.14.8-1.73,1.18-.29.19-.59.37-.89.54-.15.09-.3.17-.44.25l-.22.12-.18.1.25.52.19-.1.22-.12c.15-.08.3-.17.45-.26.3-.18.6-.36.9-.55.09-.06.18-.11.27-.17.13.11.31.26.54.43.48.37,1.17.84,1.97,1.26.8.41,1.73.77,2.67.9.94.13,1.9.04,2.73-.42,0,0-.24-.18-.66-.43-.43-.26-1.04-.58-1.79-.9-.75-.31-1.62-.61-2.58-.81-.79-.17-1.65-.26-2.54-.25.39-.26.78-.53,1.16-.8.23-.17.46-.34.68-.51.13.09.31.21.53.35.48.31,1.17.7,1.96,1.01.79.32,1.7.57,2.61.59.91.03,1.82-.17,2.58-.72,0,0-.24-.14-.67-.33-.43-.19-1.04-.42-1.78-.64-.73-.21-1.59-.41-2.51-.5-.75-.08-1.55-.1-2.39-.01.59-.46,1.15-.95,1.68-1.45.13.07.3.17.51.27.48.24,1.16.54,1.93.75.39.11.8.19,1.23.24.42.04.86.05,1.29,0,.86-.1,1.72-.43,2.37-1.1,0,0-.25-.09-.68-.2-.43-.11-1.04-.22-1.76-.32-.72-.09-1.54-.16-2.41-.14-.7.01-1.44.07-2.2.23.07-.07.15-.14.22-.22.44-.44.85-.89,1.22-1.35.13.05.29.11.49.18.47.16,1.14.35,1.88.44.38.04.77.05,1.17.03.2-.01.4-.04.6-.08.2-.04.41-.09.6-.15.2-.07.4-.14.58-.24.19-.1.37-.21.55-.34.17-.13.33-.28.49-.44.15-.16.28-.35.41-.55,0,0-.25-.03-.66-.02-.21,0-.46,0-.74.02-.28.01-.6.03-.94.07-.68.06-1.45.15-2.24.3-.63.12-1.28.27-1.95.49.36-.46.68-.93.95-1.4.05-.08.1-.17.14-.25.12.03.27.06.45.08.23.03.5.07.8.08.3.01.63,0,.98-.03.35-.04.71-.11,1.07-.23.18-.06.35-.13.53-.22.09-.04.18-.09.26-.14.08-.05.17-.1.25-.16.16-.11.33-.24.47-.38.15-.14.28-.3.41-.47.12-.17.23-.36.32-.56.09-.2.16-.41.22-.63,0,0-.23.05-.6.18-.19.06-.41.14-.65.24-.25.1-.53.21-.82.33-.59.24-1.26.52-1.94.82-.53.23-1.07.47-1.61.76.27-.55.48-1.11.6-1.65.11,0,.24-.01.4-.03.21-.02.46-.06.73-.13.27-.07.56-.16.86-.29.29-.13.59-.3.88-.52.27-.22.55-.48.77-.78.11-.15.22-.32.3-.49.07-.14.12-.28.18-.43,1.21.93,2.17,2.14,2.82,3.56.3.65.52,1.34.66,2.04-.66,7.93-6.3,14.47-14.05,16.27-4.74,1.1-9.63.29-13.78-2.28-4.14-2.58-7.03-6.61-8.14-11.35-.34-1.44-.5-2.9-.48-4.36.1.3.22.6.35.89,1.08,2.37,3.02,4.19,5.46,5.1.78.29,1.58.48,2.4.57-.71.21-1.3.43-1.72.62-.43.19-.67.33-.67.33.76.55,1.67.75,2.58.72Zm22.83-13.3s.04-.08.06-.12c.37.17.73.37,1.07.58-.04.03-.07.06-.11.09-.33-.2-.67-.39-1.03-.55Zm5.28,5.08c-.08-.2-.15-.38-.23-.55-.72-1.58-1.81-2.92-3.18-3.92,0-.05.01-.1.02-.15,1.41,1.02,2.55,2.39,3.28,4.01.08.18.16.37.23.56-.02-1.29-.17-2.6-.48-3.91-1.11-4.78-4.02-8.85-8.19-11.44-2.78-1.73-5.89-2.67-9.08-2.77-1.6-.05-3.21.1-4.81.48-4.78,1.11-8.85,4.02-11.44,8.19-1.24,1.99-2.07,4.16-2.48,6.4,0,1.26.28,2.52.81,3.7.77,1.69,2,3.07,3.56,4.01-.07.02-.13.04-.18.05-1.53-.95-2.74-2.33-3.5-4-.54-1.19-.82-2.46-.83-3.75h0s0-.03,0-.03c.42-2.28,1.26-4.45,2.5-6.44,2.61-4.2,6.71-7.13,11.52-8.25,1.6-.37,3.23-.53,4.84-.48,3.22.11,6.38,1.07,9.14,2.79,4.2,2.61,7.13,6.71,8.25,11.52.3,1.29.46,2.62.48,3.94v.76s-.26-.71-.26-.71Z" fill="#fff" stroke-width="0"/>
        <path d="m470.99,267.59c0-.09,0-.18,0-.27-.05-1.76-.35-3.51-.88-5.2-.57-1.81-1.39-3.52-2.46-5.09l-.03-.05c-.04-.05-.07-.1-.11-.15l-.02-.03c-1.67-2.38-3.8-4.31-6.34-5.74l-.11-.06c-.8-.45-1.64-.84-2.49-1.16-1.17-.45-2.38-.78-3.61-.99-2.17-.37-4.37-.37-6.55,0l-.1.02c-.07.01-.13.02-.2.04h-.01c-.08.02-.16.03-.25.05-.05.01-.1.02-.15.03-.14.03-.27.06-.41.09h-.03c-.17.05-.34.09-.52.14-.04,0-.07.02-.11.03h-.05c-.13.05-.26.09-.39.13-.05.02-.1.03-.16.05-.14.04-.28.09-.43.13l-.1.03c-.36.12-.72.25-1.07.4l-.08.03c-.14.06-.28.12-.42.18-.05.02-.1.04-.15.06h-.01c-.11.05-.22.1-.33.15h-.02c-.06.04-.12.07-.18.1-.06.03-.12.06-.18.09l-.04.02c-4.4,2.19-7.77,5.92-9.5,10.51-.13.35-.25.72-.34,1.08-.25.8-.44,1.62-.58,2.43-.44,2.55-.36,5.14.23,7.68.59,2.54,1.67,4.9,3.19,6.99.73,1.01,1.57,1.95,2.48,2.8.91.84,1.9,1.6,2.95,2.25,1.05.65,2.17,1.21,3.32,1.65,1.17.45,2.38.78,3.61.99.88.15,1.77.24,2.65.27.21,0,.42.01.62.01,1.47,0,2.95-.17,4.41-.51,2.54-.59,4.89-1.67,6.99-3.19,1.01-.73,1.95-1.57,2.8-2.48.84-.91,1.6-1.9,2.25-2.95.65-1.05,1.21-2.17,1.65-3.32.45-1.17.78-2.38.99-3.61.2-1.14.29-2.31.28-3.46v-.16Zm-.41,3.6c-.21,1.22-.54,2.42-.98,3.58-.44,1.15-.99,2.26-1.64,3.3-.65,1.04-1.4,2.03-2.24,2.93-.84.91-1.78,1.74-2.78,2.47-2.08,1.51-4.42,2.58-6.94,3.17-1.65.39-3.33.55-5,.5-.88-.03-1.76-.12-2.63-.27-1.22-.21-2.42-.54-3.58-.98-1.15-.44-2.26-.99-3.3-1.64-1.04-.65-2.03-1.4-2.93-2.24-.91-.84-1.74-1.78-2.47-2.78-1.51-2.08-2.58-4.42-3.17-6.94-.59-2.53-.66-5.09-.23-7.63.14-.81.34-1.62.58-2.41.09-.36.2-.72.33-1.07,1.73-4.6,5.12-8.3,9.43-10.44.07-.04.14-.07.22-.11.07-.03.14-.06.21-.1.11-.05.22-.1.32-.15.05-.02.1-.05.15-.07.14-.06.28-.12.42-.18.03-.01.05-.02.08-.03.35-.14.71-.27,1.07-.39.03-.01.07-.02.1-.03.14-.05.28-.09.42-.13.05-.02.1-.03.16-.05.13-.04.26-.07.39-.11.05-.01.1-.03.16-.04.17-.05.35-.09.52-.13,0,0,0,0,0,0,0,0,0,0,0,0,0,0,0,0,0,0,0,0,0,0,0,0,0,0,0,0,0,0,.14-.03.28-.06.41-.09.05-.01.11-.02.16-.03.08-.02.16-.03.24-.05.07-.01.14-.03.21-.04.03,0,.07-.01.1-.02,2.16-.37,4.34-.37,6.5,0,1.22.21,2.42.54,3.58.98.85.32,1.68.71,2.48,1.15,0,0,.01,0,.02,0,.03.02.06.03.09.05,2.51,1.41,4.65,3.35,6.3,5.7.04.06.09.12.13.18.01.02.02.03.03.05,1.06,1.56,1.88,3.25,2.44,5.06.53,1.69.82,3.42.88,5.16,0,.1,0,.2,0,.3,0,.04,0,.08,0,.12.01,1.15-.08,2.3-.28,3.44Z" fill="#fff" stroke-width="0"/>
      </g>
      <g>
        <path d="m456.71,246.78l.15,1.11h.02s.67-.89.67-.89l.38.1-.39,1.48-.3-.08.25-.97h-.01s-.64.86-.64.86l-.2-.05-.13-1.07h-.01s-.25.97-.25.97l-.3-.08.39-1.48.38.1Z" fill="#fff" stroke-width="0"/>
        <path d="m457.68,248.63l1.01-1.27.38.14v1.62s-.33-.11-.33-.11v-.37s-.51-.18-.51-.18l-.23.29-.32-.11Zm1.08-.26v-.62s0,0,0,0l-.37.49.37.13Z" fill="#fff" stroke-width="0"/>
        <path d="m459.57,247.67l1.15.49-.1.24-.43-.18-.5,1.17-.29-.12.5-1.17-.43-.18.1-.24Z" fill="#fff" stroke-width="0"/>
        <path d="m460.91,248.25l1.12.57-.12.23-.42-.21-.57,1.13-.28-.14.57-1.13-.42-.21.12-.23Z" fill="#fff" stroke-width="0"/>
        <path d="m462.27,248.96l.27.16-.33.54.57.34.33-.54.27.16-.79,1.31-.27-.16.33-.54-.57-.34-.33.54-.27-.16.79-1.31Z" fill="#fff" stroke-width="0"/>
        <path d="m463.66,249.81l.84.59-.15.21-.58-.41-.21.3.54.38-.15.21-.54-.38-.21.3.58.41-.15.21-.84-.59.88-1.25Z" fill="#fff" stroke-width="0"/>
        <path d="m464.71,250.53l.27.22-.49.99h0s.9-.64.9-.64l.23.19-.47,1h0s.88-.65.88-.65l.27.22-1.32.9-.24-.2.42-.96h0s-.87.58-.87.58l-.24-.2.64-1.46Z" fill="#fff" stroke-width="0"/>
        <path d="m466.24,253.96l-.22-.23.88-.86h0s-.4-.1-.4-.1l.2-.2.44.1.21.21-1.09,1.07Z" fill="#fff" stroke-width="0"/>
        <path d="m467.03,253.68c.38-.33.75-.34,1-.05.25.29.19.65-.19.98-.38.33-.75.34-1,.05-.25-.29-.19-.65.19-.98Zm.59.68c.26-.23.32-.43.21-.56-.12-.13-.32-.1-.59.13-.27.23-.32.43-.2.56.12.13.32.11.59-.13Z" fill="#fff" stroke-width="0"/>
        <path d="m467.67,255.05c.07-.06.19-.05.25.03.06.07.05.19-.03.25-.08.06-.19.05-.25-.03-.06-.08-.05-.19.03-.25Zm.63-.5c.08-.06.19-.05.25.03.06.07.05.19-.03.25s-.19.05-.25-.03c-.06-.08-.05-.19.03-.25Z" fill="#fff" stroke-width="0"/>
        <path d="m468.09,255.46l.19.26c-.09.07-.09.21,0,.33.09.12.22.16.32.09.1-.07.11-.21,0-.36l-.08-.12.19-.14.08.12c.09.12.22.16.31.09.09-.07.11-.19.03-.3s-.21-.16-.3-.09l-.18-.25c.22-.15.5-.06.69.19.19.26.16.54-.04.68-.14.1-.31.07-.43-.05h-.01c.11.21.07.39-.09.5-.21.15-.51.06-.71-.22-.2-.27-.18-.58.03-.74Z" fill="#fff" stroke-width="0"/>
        <path d="m468.97,256.54l1.2.02.21.34-.85.53.1.17-.22.13-.1-.17-.23.14-.16-.26.23-.14-.39-.63.21-.13Zm.4.63l.56-.34h0s-.76-.03-.76-.03h-.01s.22.37.22.37Z" fill="#fff" stroke-width="0"/>
        <path d="m469.46,258.38l1.61-.2.18.37-1.14,1.15-.15-.31.27-.26-.24-.5-.37.05-.15-.31Zm.95.57l.44-.43h0s-.61.08-.61.08l.17.35Z" fill="#fff" stroke-width="0"/>
        <path d="m470.64,261.01l-.1-.26.65-.98h0s-.9.35-.9.35l-.12-.29,1.42-.57.1.26-.65.98h0s.9-.35.9-.35l.12.29-1.42.57Z" fill="#fff" stroke-width="0"/>
        <path d="m470.71,261.23l1.46-.46.16.52c.14.44-.05.79-.5.94-.46.14-.82-.04-.96-.48l-.16-.51Zm.42.42c.09.28.28.38.6.27.32-.1.42-.29.33-.57l-.06-.2-.94.3.06.2Z" fill="#fff" stroke-width="0"/>
        <path d="m472.86,263.2l-.93.62v.02s1.1.21,1.1.21l.08.39-1.5.3-.06-.3.98-.2h0s-1.05-.21-1.05-.21l-.04-.21.9-.59h0s-.99.19-.99.19l-.06-.3,1.5-.3.08.39Z" fill="#fff" stroke-width="0"/>
        <path d="m471.62,264.87l1.58.35.05.41-1.46.7-.04-.34.34-.15-.06-.55-.36-.08-.04-.34Zm.7.86l.56-.26h0s-.6-.13-.6-.13l.04.39Z" fill="#fff" stroke-width="0"/>
        <path d="m473.31,266.15l.07,1.25h-.26s-.02-.45-.02-.45l-1.27.07-.02-.31,1.27-.07-.02-.47h.26Z" fill="#fff" stroke-width="0"/>
        <path d="m473.38,267.62l-.02,1.25h-.26s0-.47,0-.47l-1.27-.02v-.31s1.27.02,1.27.02v-.47s.27,0,.27,0Z" fill="#fff" stroke-width="0"/>
        <path d="m473.34,269.15l-.03.32-.63-.05-.06.66.63.05-.03.32-1.52-.13.03-.32.63.05.06-.66-.63-.05.03-.32,1.52.13Z" fill="#fff" stroke-width="0"/>
        <path d="m473.19,270.78l-.16,1.02-.26-.04.11-.7-.37-.06-.1.65-.26-.04.1-.65-.37-.06-.11.7-.26-.04.16-1.02,1.51.24Z" fill="#fff" stroke-width="0"/>
        <path d="m473,272.04l-.08.34h-1.1s0,.01,0,.01l.97.53-.07.29-1.11.02h0s.98.52.98.52l-.08.34-1.38-.79.07-.3,1.05-.05h0s-.91-.54-.91-.54l.07-.3,1.59-.06Z" fill="#fff" stroke-width="0"/>
        <path d="m471.38,273.96l-.1.29c-.12-.03-.23.05-.27.17-.05.15.02.29.17.34.15.05.3-.02.35-.17.04-.11.02-.2-.05-.27l.09-.27.81.36-.3.89-.25-.08.22-.65-.35-.16h0c.05.09.07.22.02.34-.09.27-.35.4-.63.31-.29-.1-.43-.39-.32-.72.1-.3.35-.46.61-.39Z" fill="#fff" stroke-width="0"/>
        <path d="m470.87,275.22c.09.03.14.14.1.23-.03.09-.14.14-.23.1-.09-.04-.14-.14-.1-.23.04-.09.14-.14.23-.1Zm.75.29c.09.03.14.14.1.23-.03.09-.14.14-.23.1-.09-.04-.14-.14-.1-.23.04-.09.14-.14.23-.1Z" fill="#fff" stroke-width="0"/>
        <path d="m470.81,275.82l.66,1-.16.36-.92-.41-.08.18-.23-.1.08-.18-.25-.11.12-.28.25.11.3-.68.23.1Zm-.3.68l.6.27h0s-.42-.65-.42-.65h-.01s-.17.38-.17.38Z" fill="#fff" stroke-width="0"/>
        <path d="m470.22,277.13l.58,1.05-.19.35-.89-.47-.09.17-.23-.12.09-.17-.24-.13.14-.27.24.13.35-.66.22.12Zm-.35.66l.58.31h0s-.37-.68-.37-.68h-.01s-.2.37-.2.37Z" fill="#fff" stroke-width="0"/>
        <path d="m468.69,279.91l.39-.58.21.14-.39.58-.21-.14Z" fill="#fff" stroke-width="0"/>
        <path d="m468.59,281.52l-.39.46c-.23.27-.5.29-.73.1-.16-.14-.21-.31-.16-.49l-.67-.14.23-.27.6.13.16-.19-.41-.35.2-.24,1.17.99Zm-.91-.06c-.12.14-.12.26,0,.36.12.1.24.08.36-.06l.14-.17-.36-.3-.14.17Z" fill="#fff" stroke-width="0"/>
        <path d="m467.65,282.62l-.22.23-.45-.44-.46.48.45.44-.22.23-1.1-1.07.22-.23.45.44.46-.48-.45-.44.22-.23,1.1,1.07Z" fill="#fff" stroke-width="0"/>
        <path d="m466.5,283.78l-.77.68-.17-.2.53-.47-.25-.28-.49.44-.17-.2.49-.44-.25-.28-.53.47-.17-.2.77-.69,1.02,1.14Z" fill="#fff" stroke-width="0"/>
        <path d="m465.49,284.67l-.81.64-.16-.21.56-.44-.23-.29-.52.41-.16-.21.52-.41-.23-.29-.56.44-.16-.21.81-.64.95,1.2Z" fill="#fff" stroke-width="0"/>
        <path d="m464,285.8l-.27.17-.35-.53-.56.36.35.53-.27.17-.83-1.28.27-.17.35.53.56-.36-.35-.53.27-.17.83,1.28Z" fill="#fff" stroke-width="0"/>
        <path d="m461.27,285.65c.36-.19.77-.09,1.01.35.24.44.1.84-.25,1.03-.35.19-.77.09-1-.35-.24-.44-.1-.84.25-1.03Zm.62,1.14c.21-.11.26-.34.1-.63s-.38-.37-.59-.26c-.21.11-.26.34-.1.63.16.29.38.37.59.26Z" fill="#fff" stroke-width="0"/>
        <path d="m460.01,287.71c.15-.06.2-.17.16-.26-.04-.1-.17-.1-.3-.08l-.14.02c-.26.05-.5,0-.6-.23-.11-.26.02-.51.37-.65.34-.14.63-.08.76.22l-.28.12c-.07-.14-.21-.16-.37-.1-.15.07-.22.18-.18.28.04.1.15.1.32.08l.17-.03c.26-.04.46.01.55.22.11.26-.04.52-.35.65-.31.13-.59.05-.7-.2l.28-.12c.06.11.18.13.32.07Z" fill="#fff" stroke-width="0"/>
        <path d="m459.3,288.26l-.97.34-.09-.25.67-.23-.12-.35-.62.22-.09-.25.62-.22-.12-.35-.67.24-.09-.25.97-.34.51,1.44Z" fill="#fff" stroke-width="0"/>
        <path d="m456.13,288.27l.68-.16.06.24-.68.16-.06-.24Z" fill="#fff" stroke-width="0"/>
        <path d="m454.82,288.11l-.48.57c-.13.15-.19.25-.17.37.02.13.13.2.27.19.14-.02.22-.12.2-.27l.3-.04c.04.3-.16.51-.48.56-.32.04-.56-.11-.6-.38-.02-.17.04-.33.32-.65l.2-.25h0s-.65.07-.65.07l-.03-.26,1.09-.14.03.23Z" fill="#fff" stroke-width="0"/>
        <path d="m453.58,288.8c.03.5-.18.8-.57.82-.38.02-.63-.25-.66-.75-.03-.5.18-.8.57-.82.38-.02.63.25.66.75Zm-.9.06c.02.35.14.52.32.51s.28-.2.26-.54c-.02-.35-.14-.52-.32-.51-.18.01-.28.19-.26.54Z" fill="#fff" stroke-width="0"/>
        <path d="m452.12,288.89c0,.5-.24.78-.63.78-.38,0-.61-.3-.6-.8,0-.5.24-.78.63-.78.38,0,.61.29.6.8Zm-.9-.01c0,.35.1.53.28.53.18,0,.29-.17.3-.52,0-.35-.1-.53-.28-.53-.18,0-.29.17-.3.52Z" fill="#fff" stroke-width="0"/>
        <path d="m450.7,288.52c-.01.19-.17.34-.37.35h0c.16.05.27.2.25.37-.02.24-.26.39-.57.37s-.53-.21-.51-.45c.01-.17.14-.3.3-.32h0c-.18-.05-.32-.22-.31-.41.02-.25.28-.41.63-.39.35.03.59.23.57.48Zm-.88.63c0,.12.08.21.22.22.14.01.24-.07.24-.19,0-.12-.08-.22-.21-.23s-.24.07-.25.19Zm.01-.66c0,.13.09.24.25.25.16.01.28-.08.28-.21.01-.13-.09-.23-.25-.24-.16-.01-.27.07-.28.2Z" fill="#fff" stroke-width="0"/>
        <path d="m448.76,288.69c-.08.49-.36.74-.74.67-.38-.06-.56-.39-.48-.88.08-.5.36-.74.74-.67.38.06.56.38.48.88Zm-.89-.15c-.06.34.02.54.2.57s.31-.13.37-.47c.06-.35-.02-.54-.2-.56-.17-.03-.32.12-.37.47Z" fill="#fff" stroke-width="0"/>
        <path d="m446.15,288.2c.12-.51.43-.75.81-.66.3.07.46.31.43.57l-.3-.07c0-.11-.07-.2-.19-.23-.2-.05-.35.11-.43.4h.01c.1-.11.27-.16.43-.12.27.06.42.31.35.59-.07.3-.35.46-.69.38-.31-.08-.56-.33-.43-.87Zm.81.42c.03-.15-.05-.29-.2-.32-.15-.04-.3.06-.33.2-.03.14.05.29.2.33.15.04.29-.05.33-.2Z" fill="#fff" stroke-width="0"/>
        <path d="m445.06,287.02l.3.1-.38,1.17h0s.4-.1.4-.1l-.09.27-.43.11-.28-.09.48-1.45Z" fill="#fff" stroke-width="0"/>
        <path d="m443.63,287.83h0s.7.28.7.28l-.09.24-1.01-.39.1-.25,1.06-.94.31.12-1.06.94Z" fill="#fff" stroke-width="0"/>
        <path d="m441.8,286.29l.62.32-.11.22-.62-.32.11-.22Z" fill="#fff" stroke-width="0"/>
        <path d="m440.18,286.39l-.26-.18.35-.53-.55-.37-.35.53-.27-.18.85-1.28.27.18-.35.53.55.37.35-.53.26.18-.85,1.28Z" fill="#fff" stroke-width="0"/>
        <path d="m438.53,284.94c.13.1.24.09.31.01.07-.09,0-.2-.08-.3l-.09-.11c-.17-.21-.25-.43-.09-.63.17-.22.45-.23.75,0,.29.23.38.51.18.77l-.24-.19c.09-.13.04-.27-.1-.37-.13-.1-.27-.11-.34-.02-.06.08-.02.18.09.31l.11.13c.17.21.21.41.08.58-.17.22-.48.22-.74.01-.27-.21-.33-.49-.17-.71l.24.19c-.06.1-.03.22.09.31Z" fill="#fff" stroke-width="0"/>
        <path d="m437.7,284.59l-.24-.21.83-.95-.5-.43.17-.2.73.64-1.01,1.15Z" fill="#fff" stroke-width="0"/>
        <path d="m436.5,283.14c.17.17.41.15.64-.08.23-.23.24-.47.08-.64-.12-.12-.28-.15-.42-.05l-.23-.23c.23-.18.57-.19.85.08.29.29.3.71-.05,1.06-.35.35-.77.34-1.06.06-.25-.25-.3-.58-.08-.86l.23.23c-.1.14-.08.3.04.43Z" fill="#fff" stroke-width="0"/>
        <path d="m435.65,282.64l-.4-.45c-.23-.26-.21-.54.01-.74.16-.14.34-.17.51-.08l.23-.64.23.26-.22.58.16.18.41-.36.21.24-1.15,1.01Zm.19-.89c-.12-.14-.24-.16-.36-.06-.12.1-.12.23,0,.37l.15.17.35-.31-.15-.17Z" fill="#fff" stroke-width="0"/>
        <path d="m434.71,281.54l-.37-.48c-.21-.27-.18-.5,0-.64.14-.11.3-.08.43.02h.01c-.1-.15-.09-.36.09-.5.19-.15.45-.11.66.16l.39.52-1.22.93Zm-.13-.9c-.09.07-.1.18-.01.29l.15.2.3-.23-.15-.19c-.08-.11-.2-.14-.3-.07Zm.47-.43c-.1.08-.12.21-.02.33l.17.22.33-.25-.16-.21c-.11-.15-.22-.16-.31-.09Z" fill="#fff" stroke-width="0"/>
        <path d="m433.65,278.45l.36.6-.21.13-.36-.6.21-.13Z" fill="#fff" stroke-width="0"/>
        <path d="m432.23,277.7l-.26-.54c-.15-.32-.06-.58.22-.71.19-.09.37-.07.51.06l.4-.55.15.32-.37.5.1.22.49-.23.14.29-1.38.65Zm.43-.8c-.08-.17-.19-.22-.33-.15-.14.07-.18.18-.1.35l.1.2.42-.2-.1-.2Z" fill="#fff" stroke-width="0"/>
        <path d="m431.62,276.39l-.11-.3.59-.23-.24-.62-.59.23-.12-.3,1.43-.55.12.3-.59.23.24.62.59-.23.11.3-1.43.55Z" fill="#fff" stroke-width="0"/>
        <path d="m431.04,274.86l-.3-.98.25-.08.21.68.36-.11-.2-.63.25-.08.2.63.36-.11-.21-.68.25-.08.31.98-1.46.45Z" fill="#fff" stroke-width="0"/>
        <path d="m430.65,273.57l-.24-1,.25-.06.17.69.36-.09-.16-.64.25-.06.16.64.36-.09-.17-.69.25-.06.24,1-1.49.36Z" fill="#fff" stroke-width="0"/>
        <path d="m430.34,272.26l-.05-.31.63-.11-.11-.65-.63.11-.05-.31,1.51-.26.05.31-.63.11.11.65.63-.11.05.31-1.51.26Z" fill="#fff" stroke-width="0"/>
        <path d="m431.55,269.81c.04.41-.22.74-.72.79-.5.05-.81-.23-.85-.64-.04-.4.22-.74.72-.78.5-.05.81.24.85.64Zm-1.29.12c.02.24.21.38.54.34.33-.03.49-.2.47-.44-.02-.24-.21-.37-.54-.34-.33.03-.49.2-.47.44Z" fill="#fff" stroke-width="0"/>
        <path d="m430.16,268.36c0,.16.08.25.18.25.11,0,.16-.12.19-.25l.03-.14c.05-.26.18-.46.44-.47.28,0,.46.21.47.58,0,.37-.16.61-.49.63v-.31c.15-.01.22-.14.22-.31,0-.17-.08-.27-.2-.27-.1,0-.15.1-.19.27l-.04.17c-.06.26-.18.42-.41.43-.28,0-.47-.24-.47-.57s.18-.57.45-.58v.3c-.11.02-.18.11-.18.27Z" fill="#fff" stroke-width="0"/>
        <path d="m429.91,267.5l.04-1.03h.26s-.03.72-.03.72l.37.02.03-.66h.26s-.03.67-.03.67l.37.02.03-.71h.26s-.04,1.04-.04,1.04l-1.53-.06Z" fill="#fff" stroke-width="0"/>
        <path d="m431.35,266.29c-.1,0-.17-.09-.16-.19,0-.09.09-.17.19-.16.1,0,.17.1.16.19,0,.1-.1.17-.19.16Z" fill="#fff" stroke-width="0"/>
        <path d="m430.39,264.86c-.03.24.13.42.44.46.33.05.52-.09.55-.32.02-.17-.05-.31-.21-.37l.05-.32c.28.08.5.35.44.73-.06.41-.38.66-.88.6-.49-.07-.74-.41-.68-.81.05-.35.29-.58.64-.58l-.04.32c-.17,0-.29.12-.32.29Z" fill="#fff" stroke-width="0"/>
        <path d="m431.94,263.53c-.09.4-.44.64-.92.53-.49-.11-.7-.47-.61-.87.09-.39.44-.64.92-.53.49.11.7.47.61.87Zm-1.26-.28c-.05.23.09.42.41.49s.53-.04.58-.27-.09-.42-.41-.49-.53.04-.58.27Z" fill="#fff" stroke-width="0"/>
        <path d="m430.78,261.81l1.12-.09v-.02s-.86-.72-.86-.72l.12-.38,1.46.46-.09.29-.96-.3h0s.83.69.83.69l-.06.2-1.07.08h0s.96.31.96.31l-.09.29-1.46-.46.12-.38Z" fill="#fff" stroke-width="0"/>
        <path d="m432.78,259.04l-.29.64-.23-.1.29-.64.23.1Z" fill="#fff" stroke-width="0"/>
        <path d="m433.06,256.65l.92.54c.26.15.31.42.16.69-.14.24-.37.36-.63.2l.16-.27c.11.06.2.03.26-.07.06-.1.03-.2-.1-.28l-.92-.54.16-.27Z" fill="#fff" stroke-width="0"/>
        <path d="m433.23,256.37l.57-.86.22.14-.39.59.31.21.36-.55.22.14-.36.55.31.21.39-.59.22.14-.57.86-1.28-.84Z" fill="#fff" stroke-width="0"/>
        <path d="m434.52,254.95c-.1.13-.09.24-.01.31.09.07.2,0,.3-.08l.11-.09c.21-.17.43-.25.63-.09.22.17.23.45,0,.75-.22.29-.5.38-.77.19l.19-.25c.13.08.27.03.37-.1.1-.13.1-.27.01-.34-.08-.06-.18-.02-.31.09l-.13.11c-.21.17-.4.22-.58.08-.22-.17-.22-.48-.02-.74.2-.27.49-.33.71-.17l-.18.24c-.1-.06-.22-.03-.31.09Z" fill="#fff" stroke-width="0"/>
        <path d="m435.69,253.16l.75.65c.25.22.25.56,0,.84-.25.29-.58.33-.84.11l-.75-.65.21-.24.73.64c.13.12.31.11.44-.04.13-.14.11-.32-.02-.44l-.73-.64.21-.24Z" fill="#fff" stroke-width="0"/>
        <path d="m436.5,252.69c-.11.11-.12.23-.05.3.08.08.19.03.31-.04l.12-.07c.23-.14.46-.19.64,0,.2.2.17.48-.1.74-.26.26-.55.31-.79.08l.22-.22c.12.1.26.07.38-.05.12-.12.14-.25.06-.33-.07-.07-.17-.04-.32.05l-.15.09c-.23.14-.43.16-.59,0-.2-.2-.15-.5.08-.74.24-.24.53-.26.72-.07l-.22.21c-.09-.08-.21-.06-.32.05Z" fill="#fff" stroke-width="0"/>
        <path d="m438.57,252.53l-.24.21-1-1.16.24-.21,1,1.16Z" fill="#fff" stroke-width="0"/>
        <path d="m438.4,251.01c-.13.1-.15.21-.09.29.07.09.19.06.31,0l.13-.06c.24-.12.48-.13.64.07.17.22.11.5-.18.73-.29.23-.58.24-.79-.01l.24-.19c.1.11.25.1.38,0,.13-.1.17-.23.1-.32-.06-.08-.17-.06-.33,0l-.16.07c-.24.11-.45.11-.58-.07-.17-.22-.09-.52.17-.72.27-.21.56-.2.73.01l-.24.19c-.08-.09-.21-.08-.33.01Z" fill="#fff" stroke-width="0"/>
        <path d="m439.37,249.98l.27-.17.37.57h.02s.1-.88.1-.88l.32-.21-.11.89.94.4-.32.21-.7-.3-.03.25.24.37-.27.17-.83-1.29Z" fill="#fff" stroke-width="0"/>
        <path d="m441.67,250.35l-.27.16-.77-1.33.27-.16.77,1.33Z" fill="#fff" stroke-width="0"/>
        <path d="m443.01,249.65l-.24.13-1.04-.56h-.01s.44.87.44.87l-.28.14-.7-1.36.25-.13,1.04.56h.01s-.44-.87-.44-.87l.28-.14.7,1.36Z" fill="#fff" stroke-width="0"/>
        <path d="m443.36,248.11c-.22.09-.3.32-.17.62.13.3.34.41.56.31.2-.08.27-.25.2-.43l-.31.13-.09-.22.59-.25.07.18c.16.37,0,.7-.36.85-.4.17-.78,0-.97-.44-.19-.46-.02-.85.35-1,.32-.13.64-.04.8.22l-.3.12c-.09-.12-.24-.15-.39-.09Z" fill="#fff" stroke-width="0"/>
        <path d="m446.08,247.83l-.67.2-.07-.24.67-.2.07.24Z" fill="#fff" stroke-width="0"/>
        <path d="m447.17,246.65l.99-.19.05.26-.68.13.07.37.62-.11.05.26-.62.11.12.62-.31.06-.28-1.5Z" fill="#fff" stroke-width="0"/>
        <path d="m448.43,246.42l.6-.07c.35-.04.57.13.6.43.03.21-.05.37-.22.46l.4.55-.35.04-.36-.5-.24.03.07.54-.31.04-.19-1.52Zm.63.66c.19-.02.27-.11.25-.26-.02-.15-.12-.23-.31-.2l-.22.03.06.47.22-.03Z" fill="#fff" stroke-width="0"/>
        <path d="m449.86,246.26l1.03-.06.02.26-.71.04.02.37.66-.04v.26s-.64.04-.64.04l.02.37.71-.04.02.26-1.03.06-.09-1.53Z" fill="#fff" stroke-width="0"/>
        <path d="m451.22,246.19l1.03.02v.26s-.71-.01-.71-.01v.37s.65.01.65.01v.26s-.66-.01-.66-.01v.37s.71.01.71.01v.26s-1.03-.02-1.03-.02l.02-1.53Z" fill="#fff" stroke-width="0"/>
        <path d="m454.2,247.23l-.69-.07.03-.25.69.07-.03.25Z" fill="#fff" stroke-width="0"/>
      </g>
    </g>
    <g>
      <path d="m486.78,268.11l4.41,5.49h.79v.5h-3.55l-4.66-5.88v5.38h1.12v.5h-5.3v-.5h1.12v-11.49h-1.12v-.5h6.76c1.25,0,2.17.29,2.75.86.58.57.87,1.34.87,2.3,0,.6-.1,1.1-.3,1.51-.2.41-.45.74-.75,1-.3.26-.65.46-1.03.59-.38.13-.76.21-1.13.24Zm-1.85-.37c.42,0,.75-.08,1.01-.25.26-.17.46-.38.61-.64.15-.26.25-.56.3-.91.05-.34.08-.69.08-1.04s-.03-.7-.1-1.03c-.06-.33-.18-.63-.35-.89-.17-.26-.39-.47-.67-.63-.28-.16-.63-.24-1.05-.24h-1v5.63h1.16Z" fill="#fff" stroke-width="0"/>
      <path d="m496.53,267.9v5.7h1.12v.5h-5.3v-.5h1.12v-11.46h-1.12v-.5h5.3v.5h-1.12v5.17h4.49v-5.17h-1.12v-.5h5.3v.5h-1.12v11.46h1.12v.5h-5.3v-.5h1.12v-5.7h-4.49Z" fill="#fff" stroke-width="0"/>
      <path d="m515.48,262.14h-5.25v5.17h5.01v.59h-5.01v5.68h5.39v.5h-9.49v-.5h1.11v-11.45h-1.11v-.5h9.34v.5Z" fill="#fff" stroke-width="0"/>
      <path d="m525.64,262.14h-5.25v5.17h5.01v.59h-5.01v5.68h5.39v.5h-9.49v-.5h1.11v-11.45h-1.11v-.5h9.34v.5Z" fill="#fff" stroke-width="0"/>
      <path d="m530.65,267.9v5.7h1.12v.5h-5.3v-.5h1.12v-11.46h-1.12v-.5h5.3v.5h-1.12v5.17h4.49v-5.17h-1.12v-.5h5.3v.5h-1.12v11.46h1.12v.5h-5.3v-.5h1.12v-5.7h-4.49Z" fill="#fff" stroke-width="0"/>
      <path d="m545.69,261.58c1,0,1.82.14,2.49.42.66.28,1.2.69,1.6,1.23.4.54.68,1.2.85,1.99.17.79.25,1.69.25,2.72s-.08,1.93-.25,2.72c-.17.79-.45,1.45-.85,1.98-.4.53-.93.94-1.6,1.21-.66.27-1.49.41-2.49.41s-1.89-.14-2.56-.41c-.67-.27-1.2-.68-1.58-1.21-.39-.54-.65-1.2-.8-1.98-.15-.79-.22-1.69-.22-2.72s.07-1.93.22-2.72c.15-.79.42-1.45.8-1.99.39-.54.91-.95,1.58-1.23.67-.28,1.52-.42,2.56-.42Zm2.04,2.12c0-.51-.14-.91-.43-1.2-.29-.28-.83-.43-1.64-.43s-1.34.14-1.63.43c-.29.28-.44.68-.44,1.2v8.44c0,.51.15.91.44,1.2.29.28.84.43,1.63.43s1.35-.14,1.64-.43c.29-.28.43-.68.43-1.2v-8.44Z" fill="#fff" stroke-width="0"/>
      <path d="m560.29,261.74h.61v3.15h-.61v-.85c-.07-.22-.17-.45-.29-.68-.12-.23-.28-.44-.5-.63-.21-.19-.48-.35-.81-.47-.33-.12-.74-.18-1.23-.18-.42,0-.77.05-1.04.14-.28.09-.5.22-.67.38-.17.16-.29.35-.37.57-.08.22-.11.46-.11.71,0,.43.11.79.32,1.08.21.29.49.55.82.75.33.21.69.39,1.08.54.39.15.74.29,1.08.43.43.16.84.35,1.23.56.39.21.74.48,1.04.79.3.32.55.7.73,1.14.18.44.27.98.27,1.6s-.12,1.15-.35,1.59c-.24.44-.58.8-1.02,1.08-.44.28-.98.49-1.62.62-.64.13-1.35.19-2.14.19-.36,0-.72-.03-1.08-.1-.35-.07-.69-.16-1.01-.26-.32-.11-.62-.22-.88-.35-.27-.12-.49-.24-.67-.36v.92h-.61v-3.31h.61v1.3c.19.24.43.46.7.66.27.2.57.37.89.51.32.14.65.25.99.33.34.08.66.12.97.12.27,0,.53-.04.78-.13.25-.09.47-.22.67-.41s.35-.43.46-.71c.11-.29.17-.64.17-1.06,0-.37-.08-.71-.25-1-.17-.29-.37-.55-.61-.76-.24-.21-.5-.39-.78-.54-.28-.14-.54-.25-.77-.33-.48-.16-.96-.35-1.44-.57-.48-.22-.91-.48-1.3-.77-.39-.29-.7-.64-.95-1.04-.25-.4-.37-.86-.37-1.38,0-1.07.42-1.91,1.25-2.52s2.13-.92,3.88-.92c.66,0,1.24.08,1.73.24.49.16.9.39,1.23.67v-.75Z" fill="#fff" stroke-width="0"/>
      <path d="m572.21,262.14h-5.25v5.17h5.01v.59h-5.01v5.68h5.39v.5h-9.49v-.5h1.11v-11.45h-1.11v-.5h9.34v.5Z" fill="#fff" stroke-width="0"/>
    </g>
  </g>
</svg>