<?xml version="1.0" encoding="UTF-8"?>
<svg id="Layer_1" data-name="Layer 1" xmlns="http://www.w3.org/2000/svg" xmlns:xlink="http://www.w3.org/1999/xlink" viewBox="0 0 1000 300">
  <defs>
    <linearGradient id="linear-gradient" x1="0" y1="150" x2="1000" y2="150" gradientUnits="userSpaceOnUse">
      <stop offset="0" stop-color="#00b1e9"/>
      <stop offset=".57" stop-color="#0973e2"/>
    </linearGradient>
  </defs>
  <rect width="1000" height="300" fill="url(#linear-gradient)" stroke-width="0"/>
  <g>
    <path d="m335.55,131.98h-21.7v-14h-22.2v27.9h42.9v37.8c-10.93,3.13-21.87,3.13-32.8,0-10.93-3.13-21.87-3.13-32.8,0v-19h21.7v12.9c3.67.33,7.37,1.03,11.1,2.1,3.53,1,7.23,1.7,11.1,2.1v-31.9h-42.9v-31.9h-5v-4h70.6v18Z" fill="#fff" stroke-width="0"/>
    <path d="m370.25,177.78c1.4.2,2.82.45,4.25.75,1.43.3,2.92.68,4.45,1.15,3.07.8,5.93,1.4,8.6,1.8v-47.5h21.7v49.7c-5.4,1.53-10.45,2.3-15.15,2.3s-9.75-.77-15.15-2.3-10.47-2.3-15.2-2.3-9.8.77-15.2,2.3v-45.7h-5v-4h26.7v43.8Z" fill="#fff" stroke-width="0"/>
    <path d="m481.25,137.98h-7.8v45.7h-20.3v-45.7h-7.8v45.7h-20.3v-45.7h-5v-4h81.5v49.7h-20.3v-45.7Z" fill="#fff" stroke-width="0"/>
    <path d="m573.45,137.98h-7.8v45.7h-20.3v-45.7h-7.8v45.7h-20.3v-45.7h-5v-4h81.5v49.7h-20.3v-45.7Z" fill="#fff" stroke-width="0"/>
    <path d="m631.35,177.78c1.4.2,2.82.45,4.25.75,1.43.3,2.92.68,4.45,1.15,3.07.8,5.93,1.4,8.6,1.8v-9.8h21.7v12c-5.4,1.53-10.45,2.3-15.15,2.3s-9.75-.77-15.15-2.3c-5.4-1.53-10.47-2.3-15.2-2.3s-9.8.77-15.2,2.3v-45.7h-5v-4h65.7v29.7h-39v14.1Zm0-18.1h17.3v-21.7h-17.3v21.7Z" fill="#fff" stroke-width="0"/>
    <path d="m713.35,137.98h-7.3v45.7h-21.7v-45.7h-5v-4h55.7v14h-21.7v-10Z" fill="#fff" stroke-width="0"/>
  </g>
</svg>